<?xml version="1.0" encoding="utf-8"?>
<!-- Generator: Adobe Illustrator 27.0.0, SVG Export Plug-In . SVG Version: 6.00 Build 0)  -->
<svg version="1.1" id="a2d674ce-d32c-4968-81d7-9e69a3c2aec8"
	 xmlns="http://www.w3.org/2000/svg" xmlns:xlink="http://www.w3.org/1999/xlink" x="0px" y="0px" viewBox="0 0 730.2 730.2"
	 style="enable-background:new 0 0 730.2 730.2;" xml:space="preserve">
<style type="text/css">
	.st0{fill-rule:evenodd;clip-rule:evenodd;fill:#BFAFB4;enable-background:new    ;}
</style>
<path class="st0" d="M364.5,669.2c-95.4,0-60.4-76.3-124.2-85.5C183.8,569.2,104.6,709.1,49,652.6
	c-42.2-49.4,101.8-147.1,80.2-195.4S46,405.7,46,358.4s86.3-59.7,89.4-110.1S22.3,120.8,62.4,72.4s126.5,73,176.9,75.1
	c50.4,2.1,63.2-85.8,125.2-85.8h1.2c62,0,74.8,87.9,125.2,85.8c50.4-2.1,136.8-123.4,176.9-75.1c40.1,48.3-76.1,125.5-73,175.9
	s89.4,62.7,89.4,110.1s-61.6,50.4-83.3,98.7s122.4,146.1,80.2,195.4c-55.5,56.6-134.7-83.3-191.3-68.9
	c-63.8,9.3-28.8,85.5-124.2,85.5 M187.8,195.5c-18.2,17.9-4.3,61.5,30.9,97.3s83.1,50.4,101.2,32.5c18.2-17.9-0.1-61.4-35.4-97.3
	S206,177.6,187.8,195.5z M274.7,500.2c35.3-35.8,53.7-79.3,35.5-97.2c-18.2-17.9-66-3.5-101.3,32.4s-49.2,79.4-31.1,97.3
	S239.4,536,274.7,500.2z M455.9,228.1c-35.3,35.9-53.6,79.4-35.4,97.3c18.2,17.9,66,3.4,101.2-32.5s49.1-79.5,30.9-97.3
	S491.2,192.2,455.9,228.1z M555.8,532.7c18.2-17.9,4.2-61.5-31.1-97.3s-83.1-50.3-101.3-32.4c-18.2,17.9,0.2,61.4,35.5,97.2
	S537.6,550.6,555.8,532.7z"/>
</svg>
