<?xml version="1.0" encoding="utf-8"?>
<!-- Generator: Adobe Illustrator 27.2.0, SVG Export Plug-In . SVG Version: 6.00 Build 0)  -->
<svg version="1.0" id="Layer_1" xmlns="http://www.w3.org/2000/svg" xmlns:xlink="http://www.w3.org/1999/xlink" x="0px" y="0px"
	 viewBox="0 0 622.5 803.2" style="enable-background:new 0 0 622.5 803.2;" xml:space="preserve">
<style type="text/css">
	.st0{fill:none;}
	.st1{fill:#35202D;}
	.st2{font-family:courier new, courier, monospace, serif;}
	.st3{font-size:56px;}
	.st4{font-family:courier, courier new, serif;}
	.st5{font-weight:700}
	.st6{font-size:40px}

 
</style>
<rect x="30.7" y="137.3" class="st0" width="564.6" height="134.5"/>
<text transform="matrix(1 0 0 1 30.6611 178.7742)"><tspan x="0" y="0" class="st1 st2 st3">Hibiscus Tech</tspan><tspan x="0" y="67.2" class="st1 st2 st3 st5">WHITEPAPER</tspan></text>
<rect x="30.7" y="304.5" class="st0" width="564.6" height="207.4"/>
<text transform="matrix(1 0 0 1 30.6611 345.953)"><tspan x="0" y="0" class="st1 st4 st3 st5">Complete Format </tspan><tspan x="420" y="-290" class="st1 st2 st3 st6">000065</tspan></text>
<rect x="1.5" y="274.5" class="st1" width="619.6" height="5"/>
<g>
	<g>
		<ellipse class="st1" cx="331.5" cy="706.5" rx="4.8" ry="7"/>
	</g>
	<g>
		<ellipse class="st1" cx="331.5" cy="752" rx="4.8" ry="7"/>
	</g>
	<g>
		<path class="st1" d="M291,743.2c-0.1,0-0.2-0.1-0.2-0.2c-0.2-7.6-9.3-6.5-9.3-13.6c0-7.2,9.1-6,9.3-13.8c0-0.1,0.1-0.2,0.2-0.2
			l0,0c0.1,0,0.2,0.1,0.2,0.2c0.2,7.8,9.3,6.7,9.3,13.8c0,7.2-9.1,6-9.3,13.6C291.2,743.1,291.1,743.2,291,743.2L291,743.2z"/>
	</g>
	<g>
		<path class="st1" d="M331.5,743.2c-0.1,0-0.2-0.1-0.2-0.2c-0.2-7.6-9.3-6.5-9.3-13.6c0-7.2,9.1-6,9.3-13.8c0-0.1,0.1-0.2,0.2-0.2
			l0,0c0.1,0,0.2,0.1,0.2,0.2c0.2,7.8,9.3,6.7,9.3,13.8c0,7.2-9.1,6-9.3,13.6C331.7,743.1,331.6,743.2,331.5,743.2L331.5,743.2z"/>
	</g>
	<g>
		<path class="st1" d="M311.3,743.2c-0.1,0-0.2-0.1-0.2-0.2c-0.2-7.6-9.3-6.5-9.3-13.6c0-7.2,9.1-6,9.3-13.8c0-0.1,0.1-0.2,0.2-0.2
			l0,0c0.1,0,0.2,0.1,0.2,0.2c0.2,7.8,9.3,6.7,9.3,13.8c0,7.2-9.1,6-9.3,13.6C311.5,743.1,311.4,743.2,311.3,743.2L311.3,743.2z"/>
	</g>
	<g>
		<ellipse class="st1" cx="311.3" cy="706.5" rx="4.8" ry="7"/>
	</g>
	<g>
		<ellipse class="st1" cx="311.3" cy="752" rx="4.8" ry="7"/>
	</g>
	<g>
		<ellipse class="st1" cx="291" cy="706.5" rx="4.8" ry="7"/>
	</g>
	<g>
		<ellipse class="st1" cx="291" cy="752" rx="4.8" ry="7"/>
	</g>
</g>
</svg>
