<?xml version="1.0" encoding="utf-8"?>
<!-- Generator: Adobe Illustrator 27.2.0, SVG Export Plug-In . SVG Version: 6.00 Build 0)  -->
<svg version="1.0" id="Layer_1" xmlns="http://www.w3.org/2000/svg" xmlns:xlink="http://www.w3.org/1999/xlink" x="0px" y="0px"
	 viewBox="0 0 622.5 803.2" style="enable-background:new 0 0 622.5 803.2;" xml:space="preserve">
<style type="text/css">
	.st0{fill:#FFFFFF;}
	.st1{fill:none;stroke:#33252D;stroke-miterlimit:10;}
	.st2{fill:#33252D;}
	.st3{fill:none;stroke:#33252D;stroke-width:2;stroke-miterlimit:10;}
</style>
<g>
	
		<image style="overflow:visible;opacity:0.2;" width="620" height="801" xlink:href="E87E3BFF.png"  transform="matrix(1 0 0 1 2.5383 2.25)">
	</image>
	<g>
		<rect x="0.5" y="0.5" class="st0" width="612" height="792.8"/>
		<rect x="0.5" y="0.5" class="st1" width="612" height="792.8"/>
	</g>
</g>
<g>
	<path class="st2" d="M36.2,204.2l-1.8-25.1H38l0.9,14.6l0.4,6.4h0.3l2.8-15h4l2.8,15h0.3l0.4-6.4l0.9-14.6h3.4l-1.8,25.1H47
		l-2.6-14.5h-0.3l-2.6,14.5H36.2z"/>
	<path class="st2" d="M70.1,193.2h-8.4v11.1h-4v-25.1h4v10.7h8.4v-10.7h4v25.1h-4V193.2z"/>
	<path class="st2" d="M79.6,204.2v-3.1h5.9v-19h-5.9v-3.1h15.8v3.1h-5.9v19h5.9v3.1H79.6z"/>
	<path class="st2" d="M111.2,182.5v21.7h-4v-21.7h-7.9v-3.4H119v3.4H111.2z"/>
	<path class="st2" d="M123,204.2v-25.1h15.7v3.4h-11.7v7.3h11.3v3.4h-11.3v7.7h11.7v3.4H123z"/>
	<path class="st2" d="M144.6,204.2v-25.1h9.4c2.4,0,4.2,0.7,5.5,2c1.3,1.3,1.9,3.2,1.9,5.5c0,2.3-0.6,4.2-1.9,5.5
		c-1.3,1.3-3.1,2-5.5,2h-5.4v10H144.6z M148.6,190.8h4.8c2.5,0,3.7-1.2,3.7-3.5v-1.6c0-2.3-1.2-3.4-3.7-3.4h-4.8V190.8z"/>
	<path class="st2" d="M179.8,204.2l-1.9-6.7h-8l-1.9,6.7h-4.1l7.3-25.1h5.5l7.3,25.1H179.8z M174,183.1h-0.3l-3.1,11h6.5L174,183.1z
		"/>
	<path class="st2" d="M187.8,204.2v-25.1h9.4c2.4,0,4.2,0.7,5.5,2c1.3,1.3,1.9,3.2,1.9,5.5c0,2.3-0.6,4.2-1.9,5.5
		c-1.3,1.3-3.1,2-5.5,2h-5.4v10H187.8z M191.8,190.8h4.8c2.5,0,3.7-1.2,3.7-3.5v-1.6c0-2.3-1.2-3.4-3.7-3.4h-4.8V190.8z"/>
	<path class="st2" d="M209.4,204.2v-25.1h15.7v3.4h-11.7v7.3h11.3v3.4h-11.3v7.7h11.7v3.4H209.4z"/>
	<path class="st2" d="M235,204.2h-4v-25.1h9.4c2.4,0,4.2,0.7,5.5,2c1.3,1.3,1.9,3.2,1.9,5.5c0,1.9-0.5,3.5-1.4,4.7
		c-0.9,1.2-2.3,2-4,2.3l5.8,10.5h-4.5l-5.3-10.2H235V204.2z M239.8,190.8c2.5,0,3.7-1.1,3.7-3.4v-1.6c0-2.3-1.2-3.4-3.7-3.4H235v8.4
		H239.8z"/>
	<path class="st2" d="M256.7,182.4c-0.9,0-1.5-0.2-1.9-0.5c-0.4-0.4-0.5-0.8-0.5-1.4v-0.7c0-0.6,0.2-1,0.5-1.4
		c0.4-0.4,1-0.5,1.9-0.5c0.9,0,1.5,0.2,1.9,0.5c0.4,0.4,0.5,0.8,0.5,1.4v0.7c0,0.6-0.2,1-0.5,1.4
		C258.2,182.2,257.6,182.4,256.7,182.4z M263.9,182.4c-0.9,0-1.5-0.2-1.9-0.5c-0.4-0.4-0.5-0.8-0.5-1.4v-0.7c0-0.6,0.2-1,0.5-1.4
		c0.4-0.4,1-0.5,1.9-0.5c0.9,0,1.5,0.2,1.9,0.5s0.5,0.8,0.5,1.4v0.7c0,0.6-0.2,1-0.5,1.4S264.8,182.4,263.9,182.4z"/>
	<path class="st2" d="M35.8,235.4V233h5.1v-13.6h-0.2l-4.2,4.5l-1.8-1.6l4.6-5h4.5V233h4.4v2.4H35.8z"/>
	<path class="st2" d="M66.9,235.4v-18.1h6.8c1.7,0,3.1,0.5,4,1.5c0.9,1,1.4,2.3,1.4,4c0,1.7-0.5,3-1.4,4c-0.9,1-2.2,1.5-4,1.5h-3.9
		v7.3H66.9z M69.8,225.8h3.4c1.8,0,2.7-0.8,2.7-2.5v-1.1c0-1.7-0.9-2.5-2.7-2.5h-3.4V225.8z"/>
	<path class="st2" d="M93.1,235.4c-0.8,0-1.4-0.2-1.8-0.6s-0.7-1-0.7-1.6h-0.1c-0.3,0.8-0.7,1.4-1.4,1.9c-0.7,0.5-1.6,0.7-2.6,0.7
		c-1.4,0-2.5-0.4-3.3-1.1c-0.8-0.7-1.2-1.7-1.2-3c0-1.3,0.5-2.3,1.4-3c1-0.7,2.4-1,4.4-1h2.6v-1c0-1.8-1-2.7-2.9-2.7
		c-0.9,0-1.6,0.2-2.1,0.5c-0.5,0.3-1,0.8-1.4,1.3l-1.7-1.4c0.4-0.7,1-1.4,1.9-1.9c0.9-0.5,2.1-0.8,3.5-0.8c1.7,0,3,0.4,4,1.2
		c1,0.8,1.5,2,1.5,3.5v6.7h1.7v2.2H93.1z M87.2,233.6c0.9,0,1.7-0.2,2.3-0.6c0.6-0.4,0.9-0.9,0.9-1.6v-1.9h-2.5
		c-2,0-3.1,0.6-3.1,1.8v0.5c0,0.6,0.2,1.1,0.6,1.4S86.4,233.6,87.2,233.6z"/>
	<path class="st2" d="M110.8,236.9c0,1.4-0.6,2.4-1.7,3.1c-1.2,0.7-2.9,1-5.3,1c-1.2,0-2.1-0.1-2.9-0.2c-0.8-0.1-1.4-0.4-1.9-0.6
		c-0.5-0.3-0.8-0.6-1.1-1c-0.2-0.4-0.3-0.8-0.3-1.4c0-0.7,0.2-1.3,0.6-1.7c0.4-0.4,1-0.7,1.7-0.9v-0.3c-0.5-0.2-0.8-0.4-1.1-0.7
		c-0.3-0.3-0.4-0.7-0.4-1.2c0-0.7,0.2-1.2,0.7-1.5s1-0.6,1.7-0.8v-0.1c-0.8-0.4-1.4-0.9-1.9-1.6c-0.5-0.7-0.7-1.5-0.7-2.5
		c0-0.7,0.1-1.4,0.4-1.9c0.3-0.6,0.6-1.1,1.1-1.5c0.5-0.4,1-0.7,1.7-0.9c0.7-0.2,1.4-0.3,2.2-0.3c0.9,0,1.8,0.1,2.5,0.4v-0.4
		c0-0.5,0.1-1,0.4-1.3c0.3-0.3,0.7-0.5,1.4-0.5h2.4v2.2h-3.1v0.6c0.6,0.4,1,0.9,1.4,1.5s0.5,1.3,0.5,2.1c0,0.7-0.1,1.4-0.4,1.9
		c-0.3,0.6-0.6,1.1-1.1,1.5c-0.5,0.4-1,0.7-1.7,0.9c-0.7,0.2-1.4,0.3-2.2,0.3c-0.6,0-1.1-0.1-1.7-0.2c-0.3,0.1-0.6,0.2-0.9,0.4
		s-0.5,0.5-0.5,0.9c0,0.4,0.2,0.7,0.6,0.8c0.4,0.1,0.9,0.2,1.5,0.2h3c1.8,0,3.1,0.3,3.9,1C110.4,234.9,110.8,235.8,110.8,236.9z
		 M108.1,237c0-0.5-0.2-0.8-0.5-1.1c-0.4-0.3-1-0.4-2-0.4h-4.7c-0.7,0.3-1,0.8-1,1.5c0,0.5,0.2,0.9,0.6,1.3c0.4,0.4,1.1,0.5,2.1,0.5
		h2.1c1.1,0,1.9-0.2,2.5-0.5C107.8,238.1,108.1,237.6,108.1,237z M103.6,229.1c0.9,0,1.6-0.2,2-0.6c0.4-0.4,0.6-1,0.6-1.7V226
		c0-0.7-0.2-1.3-0.6-1.7c-0.4-0.4-1.1-0.6-2-0.6s-1.6,0.2-2,0.6c-0.4,0.4-0.6,1-0.6,1.7v0.7c0,0.7,0.2,1.3,0.6,1.7
		C102,228.9,102.7,229.1,103.6,229.1z"/>
	<path class="st2" d="M119.6,235.7c-1,0-1.9-0.2-2.8-0.5c-0.8-0.3-1.5-0.8-2.1-1.4c-0.6-0.6-1-1.3-1.3-2.2c-0.3-0.9-0.4-1.8-0.4-2.9
		c0-1.1,0.2-2,0.5-2.9c0.3-0.9,0.7-1.6,1.3-2.2s1.2-1.1,2-1.4c0.8-0.3,1.6-0.5,2.6-0.5c0.9,0,1.8,0.2,2.5,0.5c0.8,0.3,1.4,0.8,2,1.4
		c0.5,0.6,0.9,1.3,1.2,2.1c0.3,0.8,0.4,1.7,0.4,2.7v1.1H116v0.4c0,1.1,0.3,1.9,1,2.6c0.7,0.7,1.6,1,2.7,1c0.9,0,1.6-0.2,2.2-0.6
		s1.1-0.9,1.5-1.5l1.8,1.6c-0.5,0.8-1.1,1.4-2.1,2C122.2,235.4,121,235.7,119.6,235.7z M119.4,223.8c-0.5,0-1,0.1-1.4,0.3
		c-0.4,0.2-0.8,0.4-1.1,0.7c-0.3,0.3-0.5,0.7-0.7,1.1c-0.2,0.4-0.3,0.9-0.3,1.4v0.2h6.7v-0.3c0-1.1-0.3-1.9-0.9-2.5
		C121.2,224.1,120.4,223.8,119.4,223.8z"/>
</g>
<g>
	<path class="st2" d="M39.4,73.8h-3.2v4.3h-1.6v-9.8h1.6v4.2h3.2v-4.2h1.6v9.8h-1.6V73.8z"/>
	<path class="st2" d="M43.1,78.1V77h2.3v-7.4h-2.3v-1.2h6.2v1.2h-2.3V77h2.3v1.2H43.1z"/>
	<path class="st2" d="M51.5,68.4h3.4c0.9,0,1.6,0.2,2.1,0.7c0.5,0.5,0.7,1.1,0.7,1.9c0,0.6-0.1,1-0.4,1.4s-0.7,0.6-1.1,0.7v0.1
		c0.6,0.1,1,0.4,1.4,0.7s0.5,0.9,0.5,1.6c0,0.4-0.1,0.8-0.2,1.1c-0.1,0.3-0.3,0.6-0.6,0.9c-0.2,0.2-0.5,0.4-0.9,0.6
		c-0.3,0.1-0.7,0.2-1.1,0.2h-3.8V68.4z M54.5,72.6c0.5,0,0.9-0.1,1.1-0.3s0.4-0.5,0.4-1v-0.5c0-0.4-0.1-0.8-0.4-1s-0.6-0.3-1.1-0.3
		H53v3H54.5z M54.8,76.9c0.5,0,0.9-0.1,1.2-0.3c0.3-0.2,0.4-0.6,0.4-1v-0.5c0-0.5-0.1-0.8-0.4-1c-0.3-0.2-0.7-0.3-1.2-0.3H53v3.2
		H54.8z"/>
	<path class="st2" d="M59.9,78.1V77h2.3v-7.4h-2.3v-1.2H66v1.2h-2.3V77H66v1.2H59.9z"/>
	<path class="st2" d="M71.3,78.3c-0.8,0-1.6-0.1-2.1-0.4c-0.6-0.3-1.1-0.7-1.4-1.2l1-1c0.4,0.4,0.8,0.8,1.2,1s0.9,0.3,1.4,0.3
		c0.6,0,1.1-0.1,1.4-0.4c0.3-0.3,0.5-0.7,0.5-1.2c0-0.4-0.1-0.7-0.4-1c-0.2-0.2-0.7-0.4-1.2-0.5l-1.1-0.2c-0.5-0.1-0.9-0.2-1.2-0.4
		c-0.3-0.2-0.6-0.4-0.8-0.6c-0.2-0.2-0.3-0.5-0.4-0.8C68.1,71.7,68,71.4,68,71c0-0.9,0.3-1.6,0.9-2.1c0.6-0.5,1.4-0.7,2.5-0.7
		c0.8,0,1.4,0.1,2,0.4s1,0.6,1.3,1l-1,1c-0.3-0.3-0.6-0.6-1-0.8s-0.8-0.3-1.4-0.3c-0.6,0-1,0.1-1.3,0.4s-0.5,0.6-0.5,1.1
		c0,0.4,0.1,0.7,0.4,1c0.2,0.2,0.7,0.4,1.3,0.5l1,0.2c0.9,0.2,1.5,0.5,1.9,1s0.6,1.1,0.6,1.8c0,0.4-0.1,0.9-0.2,1.2
		c-0.2,0.4-0.4,0.7-0.7,1c-0.3,0.3-0.7,0.5-1.1,0.6S71.8,78.3,71.3,78.3z"/>
	<path class="st2" d="M80,78.3c-1.2,0-2.2-0.4-2.8-1.3s-0.9-2.1-0.9-3.7c0-1.6,0.3-2.9,0.9-3.7c0.6-0.9,1.5-1.3,2.8-1.3
		c0.5,0,0.9,0.1,1.2,0.2c0.3,0.1,0.7,0.3,0.9,0.5c0.3,0.2,0.5,0.5,0.6,0.8c0.2,0.3,0.3,0.6,0.4,0.9l-1.4,0.5
		c-0.1-0.2-0.2-0.4-0.3-0.6s-0.2-0.4-0.4-0.5s-0.3-0.3-0.5-0.3s-0.4-0.1-0.7-0.1c-0.7,0-1.2,0.3-1.5,0.8c-0.3,0.5-0.5,1.2-0.5,2.1
		v1.7c0,0.9,0.2,1.6,0.5,2.1c0.3,0.5,0.8,0.8,1.5,0.8c0.3,0,0.5,0,0.7-0.1s0.4-0.2,0.5-0.3s0.3-0.3,0.4-0.5c0.1-0.2,0.2-0.4,0.3-0.6
		l1.4,0.5c-0.1,0.3-0.3,0.7-0.4,0.9c-0.2,0.3-0.4,0.5-0.6,0.8c-0.3,0.2-0.6,0.4-0.9,0.5C80.9,78.2,80.5,78.3,80,78.3z"/>
	<path class="st2" d="M86.5,68.4v6c0,0.4,0,0.8,0,1.1c0,0.3,0.1,0.6,0.2,0.8s0.3,0.4,0.5,0.5s0.5,0.2,0.9,0.2c0.4,0,0.7-0.1,0.9-0.2
		s0.4-0.3,0.5-0.5c0.1-0.2,0.2-0.5,0.2-0.8c0-0.3,0-0.7,0-1.1v-6h1.6v5.7c0,0.7,0,1.3-0.1,1.8c-0.1,0.5-0.2,1-0.5,1.3
		c-0.2,0.4-0.6,0.6-1,0.8s-1,0.3-1.7,0.3c-0.7,0-1.2-0.1-1.7-0.3s-0.8-0.4-1-0.8c-0.2-0.3-0.4-0.8-0.5-1.3c-0.1-0.5-0.1-1.1-0.1-1.8
		v-5.7H86.5z"/>
	<path class="st2" d="M96.5,78.3c-0.8,0-1.6-0.1-2.1-0.4c-0.6-0.3-1.1-0.7-1.4-1.2l1-1c0.4,0.4,0.8,0.8,1.2,1S96,77,96.5,77
		c0.6,0,1.1-0.1,1.4-0.4c0.3-0.3,0.5-0.7,0.5-1.2c0-0.4-0.1-0.7-0.4-1c-0.2-0.2-0.7-0.4-1.2-0.5l-1.1-0.2c-0.5-0.1-0.9-0.2-1.2-0.4
		c-0.3-0.2-0.6-0.4-0.8-0.6c-0.2-0.2-0.3-0.5-0.4-0.8c-0.1-0.3-0.1-0.6-0.1-0.9c0-0.9,0.3-1.6,0.9-2.1c0.6-0.5,1.4-0.7,2.5-0.7
		c0.8,0,1.4,0.1,2,0.4s1,0.6,1.3,1l-1,1c-0.3-0.3-0.6-0.6-1-0.8s-0.8-0.3-1.4-0.3c-0.6,0-1,0.1-1.3,0.4s-0.5,0.6-0.5,1.1
		c0,0.4,0.1,0.7,0.4,1c0.2,0.2,0.7,0.4,1.3,0.5l1,0.2c0.9,0.2,1.5,0.5,1.9,1s0.6,1.1,0.6,1.8c0,0.4-0.1,0.9-0.2,1.2
		c-0.2,0.4-0.4,0.7-0.7,1c-0.3,0.3-0.7,0.5-1.1,0.6S97,78.3,96.5,78.3z"/>
	<path class="st2" d="M114.1,69.7v8.5h-1.6v-8.5h-3.1v-1.3h7.7v1.3H114.1z"/>
	<path class="st2" d="M118.7,78.1v-9.8h6.1v1.3h-4.5v2.8h4.4v1.3h-4.4v3h4.5v1.3H118.7z"/>
	<path class="st2" d="M130.4,78.3c-1.2,0-2.2-0.4-2.8-1.3c-0.6-0.9-0.9-2.1-0.9-3.7c0-1.6,0.3-2.9,0.9-3.7c0.6-0.9,1.5-1.3,2.8-1.3
		c0.5,0,0.9,0.1,1.2,0.2c0.3,0.1,0.7,0.3,0.9,0.5c0.3,0.2,0.5,0.5,0.6,0.8c0.2,0.3,0.3,0.6,0.4,0.9l-1.4,0.5
		c-0.1-0.2-0.2-0.4-0.3-0.6s-0.2-0.4-0.4-0.5s-0.3-0.3-0.5-0.3s-0.4-0.1-0.7-0.1c-0.7,0-1.2,0.3-1.5,0.8c-0.3,0.5-0.5,1.2-0.5,2.1
		v1.7c0,0.9,0.2,1.6,0.5,2.1c0.3,0.5,0.8,0.8,1.5,0.8c0.3,0,0.5,0,0.7-0.1s0.4-0.2,0.5-0.3s0.3-0.3,0.4-0.5c0.1-0.2,0.2-0.4,0.3-0.6
		l1.4,0.5c-0.1,0.3-0.3,0.7-0.4,0.9c-0.2,0.3-0.4,0.5-0.6,0.8c-0.3,0.2-0.6,0.4-0.9,0.5C131.3,78.2,130.9,78.3,130.4,78.3z"/>
	<path class="st2" d="M140.2,73.8h-3.2v4.3h-1.6v-9.8h1.6v4.2h3.2v-4.2h1.6v9.8h-1.6V73.8z"/>
	<path class="st2" d="M37.7,95.1c-0.6,0-1.2-0.1-1.6-0.3c-0.5-0.2-0.8-0.6-1.1-1c-0.3-0.4-0.5-1-0.7-1.6c-0.1-0.6-0.2-1.3-0.2-2.1
		c0-0.8,0.1-1.5,0.2-2.1c0.1-0.6,0.4-1.2,0.7-1.6s0.7-0.8,1.1-1c0.5-0.2,1-0.3,1.6-0.3c0.6,0,1.1,0.1,1.6,0.3c0.5,0.2,0.8,0.6,1.1,1
		s0.5,1,0.7,1.6c0.1,0.6,0.2,1.3,0.2,2.1c0,0.8-0.1,1.5-0.2,2.1c-0.1,0.6-0.4,1.2-0.7,1.6c-0.3,0.4-0.7,0.8-1.1,1
		C38.9,95,38.4,95.1,37.7,95.1z M37.7,93.8c0.7,0,1.2-0.3,1.5-0.8c0.3-0.5,0.5-1.2,0.5-2.1v-1.7c0-0.9-0.2-1.6-0.5-2.1
		c-0.3-0.5-0.8-0.8-1.5-0.8c-0.4,0-0.7,0.1-0.9,0.2c-0.3,0.1-0.5,0.3-0.6,0.6s-0.3,0.6-0.3,0.9s-0.1,0.8-0.1,1.2v1.7
		c0,0.4,0,0.9,0.1,1.2s0.2,0.7,0.3,0.9c0.2,0.3,0.4,0.5,0.6,0.6C37.1,93.8,37.4,93.8,37.7,93.8z M37.7,90.9c-0.3,0-0.6-0.1-0.7-0.2
		s-0.2-0.3-0.2-0.5v-0.3c0-0.2,0.1-0.3,0.2-0.5c0.1-0.1,0.4-0.2,0.7-0.2c0.3,0,0.6,0.1,0.7,0.2c0.1,0.1,0.2,0.3,0.2,0.5v0.3
		c0,0.2-0.1,0.3-0.2,0.5S38.1,90.9,37.7,90.9z"/>
	<path class="st2" d="M46.1,95.1c-0.6,0-1.2-0.1-1.6-0.3c-0.5-0.2-0.8-0.6-1.1-1c-0.3-0.4-0.5-1-0.7-1.6c-0.1-0.6-0.2-1.3-0.2-2.1
		c0-0.8,0.1-1.5,0.2-2.1c0.1-0.6,0.4-1.2,0.7-1.6s0.7-0.8,1.1-1c0.5-0.2,1-0.3,1.6-0.3c0.6,0,1.1,0.1,1.6,0.3c0.5,0.2,0.8,0.6,1.1,1
		s0.5,1,0.7,1.6c0.1,0.6,0.2,1.3,0.2,2.1c0,0.8-0.1,1.5-0.2,2.1c-0.1,0.6-0.4,1.2-0.7,1.6c-0.3,0.4-0.7,0.8-1.1,1
		C47.3,95,46.8,95.1,46.1,95.1z M46.1,93.8c0.7,0,1.2-0.3,1.5-0.8c0.3-0.5,0.5-1.2,0.5-2.1v-1.7c0-0.9-0.2-1.6-0.5-2.1
		c-0.3-0.5-0.8-0.8-1.5-0.8c-0.4,0-0.7,0.1-0.9,0.2c-0.3,0.1-0.5,0.3-0.6,0.6s-0.3,0.6-0.3,0.9s-0.1,0.8-0.1,1.2v1.7
		c0,0.4,0,0.9,0.1,1.2s0.2,0.7,0.3,0.9c0.2,0.3,0.4,0.5,0.6,0.6C45.5,93.8,45.8,93.8,46.1,93.8z M46.1,90.9c-0.3,0-0.6-0.1-0.7-0.2
		s-0.2-0.3-0.2-0.5v-0.3c0-0.2,0.1-0.3,0.2-0.5c0.1-0.1,0.4-0.2,0.7-0.2c0.3,0,0.6,0.1,0.7,0.2c0.1,0.1,0.2,0.3,0.2,0.5v0.3
		c0,0.2-0.1,0.3-0.2,0.5S46.5,90.9,46.1,90.9z"/>
	<path class="st2" d="M58,88.8c0,0.7-0.1,1.4-0.3,2s-0.5,1.2-0.8,1.7c-0.3,0.5-0.7,1-1.1,1.4s-0.8,0.7-1.2,1h-2.1
		c0.6-0.4,1.1-0.8,1.5-1.2c0.4-0.4,0.8-0.8,1.2-1.1c0.3-0.4,0.6-0.8,0.8-1.2c0.2-0.4,0.4-0.9,0.5-1.4l-0.1,0
		c-0.1,0.2-0.2,0.4-0.4,0.6c-0.1,0.2-0.3,0.3-0.5,0.5c-0.2,0.1-0.4,0.2-0.6,0.3s-0.5,0.1-0.8,0.1c-0.4,0-0.8-0.1-1.2-0.2
		c-0.4-0.1-0.7-0.3-0.9-0.6s-0.5-0.6-0.6-1c-0.1-0.4-0.2-0.8-0.2-1.3c0-0.5,0.1-0.9,0.2-1.3c0.2-0.4,0.4-0.8,0.7-1
		c0.3-0.3,0.7-0.5,1.1-0.7c0.4-0.2,0.9-0.2,1.4-0.2c0.5,0,1,0.1,1.5,0.3c0.4,0.2,0.8,0.4,1.1,0.8c0.3,0.3,0.5,0.7,0.7,1.2
		S58,88.2,58,88.8z M54.5,90.1c0.6,0,1-0.2,1.4-0.5c0.3-0.3,0.5-0.8,0.5-1.4v-0.1c0-0.6-0.2-1-0.5-1.4c-0.3-0.3-0.8-0.5-1.4-0.5
		c-0.6,0-1.1,0.2-1.4,0.5c-0.3,0.3-0.5,0.8-0.5,1.4v0.1c0,0.6,0.2,1,0.5,1.4S53.9,90.1,54.5,90.1z"/>
	<path class="st2" d="M61.1,94.9l3.6-8.5h-3.8v1.8h-1.4v-3.1h6.7v1.4l-3.5,8.4H61.1z"/>
	<path class="st2" d="M74.3,86.5h-4.4L69.6,90h0.1c0.2-0.4,0.5-0.7,0.8-0.9c0.3-0.2,0.8-0.3,1.3-0.3c0.4,0,0.8,0.1,1.2,0.2
		c0.4,0.1,0.7,0.3,0.9,0.6c0.3,0.3,0.5,0.6,0.6,1c0.2,0.4,0.2,0.8,0.2,1.3c0,0.5-0.1,0.9-0.2,1.3c-0.2,0.4-0.4,0.8-0.7,1
		s-0.7,0.5-1.1,0.7c-0.4,0.2-0.9,0.2-1.5,0.2c-0.4,0-0.8,0-1.2-0.1s-0.6-0.2-0.9-0.4c-0.3-0.2-0.5-0.4-0.7-0.6
		c-0.2-0.2-0.4-0.4-0.5-0.7l1.1-0.9c0.1,0.2,0.2,0.4,0.4,0.5c0.1,0.2,0.3,0.3,0.5,0.4s0.4,0.2,0.6,0.3c0.2,0.1,0.5,0.1,0.7,0.1
		c0.6,0,1.1-0.2,1.4-0.5c0.3-0.3,0.5-0.8,0.5-1.4v-0.1c0-0.6-0.2-1-0.5-1.3c-0.3-0.3-0.8-0.5-1.4-0.5c-0.4,0-0.8,0.1-1,0.2
		s-0.5,0.3-0.7,0.5l-1.3-0.2l0.4-5.4h5.6V86.5z"/>
	<path class="st2" d="M80.6,94.9V93H76v-1.3l4.1-6.5h2.1v6.6h1.4V93h-1.4v1.9H80.6z M77.3,91.8h3.3v-5.2h-0.1L77.3,91.8z"/>
	<path class="st2" d="M87.7,89.2c0.6,0,1.1-0.1,1.4-0.4c0.3-0.3,0.5-0.6,0.5-1v-0.1c0-0.4-0.1-0.8-0.4-1c-0.3-0.2-0.7-0.4-1.2-0.4
		c-0.5,0-0.9,0.1-1.2,0.3c-0.3,0.2-0.6,0.5-0.8,0.9l-1.1-0.9c0.1-0.2,0.3-0.4,0.5-0.6c0.2-0.2,0.4-0.4,0.7-0.5
		c0.3-0.1,0.5-0.3,0.9-0.4C87.2,85,87.6,85,88,85c0.5,0,0.9,0.1,1.3,0.2s0.7,0.3,1,0.5c0.3,0.2,0.5,0.5,0.7,0.8
		c0.2,0.3,0.2,0.7,0.2,1.1c0,0.3,0,0.6-0.1,0.8c-0.1,0.3-0.2,0.5-0.4,0.7c-0.2,0.2-0.4,0.3-0.6,0.5c-0.2,0.1-0.5,0.2-0.7,0.3v0.1
		c0.3,0.1,0.5,0.1,0.8,0.3s0.5,0.3,0.7,0.5c0.2,0.2,0.3,0.4,0.5,0.7c0.1,0.3,0.2,0.6,0.2,0.9c0,0.4-0.1,0.8-0.3,1.2
		s-0.4,0.7-0.7,0.9c-0.3,0.3-0.7,0.4-1.1,0.6c-0.4,0.1-0.9,0.2-1.5,0.2c-0.5,0-0.9,0-1.2-0.1c-0.3-0.1-0.7-0.2-0.9-0.4
		c-0.3-0.2-0.5-0.4-0.7-0.6c-0.2-0.2-0.4-0.4-0.5-0.7l1.2-0.9c0.2,0.4,0.5,0.7,0.9,1c0.3,0.2,0.8,0.4,1.4,0.4c0.6,0,1.1-0.1,1.4-0.4
		c0.3-0.3,0.5-0.7,0.5-1.2v-0.1c0-0.5-0.2-0.9-0.5-1.2s-0.8-0.4-1.5-0.4h-1v-1.3H87.7z"/>
	<path class="st2" d="M100,94.9h-6.7v-1.5l3.2-2.8c0.5-0.4,0.9-0.9,1.2-1.3c0.3-0.4,0.4-0.8,0.4-1.3V88c0-0.5-0.1-0.9-0.4-1.2
		c-0.3-0.3-0.7-0.4-1.2-0.4c-0.5,0-1,0.1-1.3,0.4c-0.3,0.3-0.5,0.7-0.6,1.1l-1.4-0.5c0.1-0.3,0.2-0.6,0.4-0.9
		c0.2-0.3,0.4-0.5,0.7-0.8s0.6-0.4,1-0.5c0.4-0.1,0.8-0.2,1.3-0.2c0.5,0,1,0.1,1.4,0.2c0.4,0.1,0.7,0.3,1,0.6s0.5,0.6,0.6,0.9
		c0.1,0.4,0.2,0.7,0.2,1.2c0,0.4-0.1,0.8-0.2,1.1c-0.1,0.3-0.3,0.6-0.5,1c-0.2,0.3-0.5,0.6-0.7,0.9c-0.3,0.3-0.6,0.6-1,0.8l-2.4,2
		h5.1V94.9z"/>
	<path class="st2" d="M105.8,94.9V93h-4.6v-1.3l4.1-6.5h2.1v6.6h1.4V93h-1.4v1.9H105.8z M102.5,91.8h3.3v-5.2h-0.1L102.5,91.8z"/>
	<path class="st2" d="M116.3,86.5h-4.4l-0.3,3.5h0.1c0.2-0.4,0.5-0.7,0.8-0.9c0.3-0.2,0.8-0.3,1.3-0.3c0.4,0,0.8,0.1,1.2,0.2
		c0.4,0.1,0.7,0.3,0.9,0.6c0.3,0.3,0.5,0.6,0.6,1c0.2,0.4,0.2,0.8,0.2,1.3c0,0.5-0.1,0.9-0.2,1.3c-0.2,0.4-0.4,0.8-0.7,1
		s-0.7,0.5-1.1,0.7c-0.4,0.2-0.9,0.2-1.5,0.2c-0.4,0-0.8,0-1.2-0.1s-0.6-0.2-0.9-0.4c-0.3-0.2-0.5-0.4-0.7-0.6
		c-0.2-0.2-0.4-0.4-0.5-0.7l1.1-0.9c0.1,0.2,0.2,0.4,0.4,0.5c0.1,0.2,0.3,0.3,0.5,0.4s0.4,0.2,0.6,0.3c0.2,0.1,0.5,0.1,0.7,0.1
		c0.6,0,1.1-0.2,1.4-0.5c0.3-0.3,0.5-0.8,0.5-1.4v-0.1c0-0.6-0.2-1-0.5-1.3c-0.3-0.3-0.8-0.5-1.4-0.5c-0.4,0-0.8,0.1-1,0.2
		s-0.5,0.3-0.7,0.5l-1.3-0.2l0.4-5.4h5.6V86.5z"/>
</g>
<g>
	<g>
		<path class="st0" d="M311.2,716.8c-1.2,0-2.2-1.5-2.2-3.4s1-3.4,2.2-3.4s2.2,1.5,2.2,3.4S312.5,716.8,311.2,716.8z"/>
		<path class="st2" d="M311.2,710.3c1.1,0,2,1.4,2,3.1c0,1.7-0.9,3.1-2,3.1s-2-1.4-2-3.1C309.3,711.7,310.2,710.3,311.2,710.3
			 M311.2,709.8c-1.4,0-2.5,1.6-2.5,3.6c0,2,1.1,3.6,2.5,3.6c1.4,0,2.5-1.6,2.5-3.6C313.7,711.4,312.6,709.8,311.2,709.8
			L311.2,709.8z"/>
	</g>
	<g>
		<path class="st0" d="M311.2,740.6c-1.2,0-2.2-1.5-2.2-3.4s1-3.4,2.2-3.4s2.2,1.5,2.2,3.4S312.5,740.6,311.2,740.6z"/>
		<path class="st2" d="M311.2,734.1c1.1,0,2,1.4,2,3.1c0,1.7-0.9,3.1-2,3.1s-2-1.4-2-3.1C309.3,735.5,310.2,734.1,311.2,734.1
			 M311.2,733.6c-1.4,0-2.5,1.6-2.5,3.6c0,2,1.1,3.6,2.5,3.6c1.4,0,2.5-1.6,2.5-3.6C313.7,735.2,312.6,733.6,311.2,733.6
			L311.2,733.6z"/>
	</g>
	<g>
		<path class="st0" d="M290.1,731.4c-0.4-1.4-1.5-2.1-2.5-2.8c-1.2-0.8-2.2-1.5-2.2-3.2c0-1.7,1.1-2.4,2.2-3.2
			c1-0.7,2.1-1.4,2.5-2.9c0.4,1.4,1.5,2.2,2.5,2.9c1.1,0.8,2.2,1.5,2.2,3.2c0,1.7-1.1,2.4-2.2,3.2
			C291.6,729.3,290.5,730,290.1,731.4z"/>
		<path class="st2" d="M290.1,720c0.5,1.1,1.5,1.8,2.3,2.4c1.1,0.8,2.1,1.4,2.1,3c0,1.6-1,2.2-2.1,3c-0.9,0.6-1.8,1.2-2.3,2.3
			c-0.5-1.1-1.5-1.7-2.3-2.3c-1.1-0.8-2.1-1.4-2.1-3c0-1.6,1-2.2,2.1-3C288.6,721.8,289.6,721.1,290.1,720 M290.1,718.1
			c-0.1,0-0.1,0-0.1,0.1c-0.1,4.1-4.9,3.5-4.9,7.2c0,3.7,4.8,3.1,4.9,7.1c0,0.1,0,0.1,0.1,0.1c0.1,0,0.1,0,0.1-0.1
			c0.1-4,4.9-3.4,4.9-7.1c0-3.7-4.8-3.1-4.9-7.2C290.2,718.1,290.2,718.1,290.1,718.1L290.1,718.1z"/>
	</g>
	<g>
		<path class="st0" d="M311.2,731.4c-0.4-1.4-1.5-2.1-2.5-2.8c-1.2-0.8-2.2-1.5-2.2-3.2c0-1.7,1.1-2.4,2.2-3.2
			c1-0.7,2.1-1.4,2.5-2.9c0.4,1.4,1.5,2.2,2.5,2.9c1.1,0.8,2.2,1.5,2.2,3.2c0,1.7-1.1,2.4-2.2,3.2
			C312.7,729.3,311.6,730,311.2,731.4z"/>
		<path class="st2" d="M311.2,720c0.5,1.1,1.5,1.8,2.3,2.4c1.1,0.8,2.1,1.4,2.1,3c0,1.6-1,2.2-2.1,3c-0.9,0.6-1.8,1.2-2.3,2.3
			c-0.5-1.1-1.5-1.7-2.3-2.3c-1.1-0.8-2.1-1.4-2.1-3c0-1.6,1-2.2,2.1-3C309.8,721.8,310.7,721.1,311.2,720 M311.2,718.1
			c-0.1,0-0.1,0-0.1,0.1c-0.1,4.1-4.9,3.5-4.9,7.2c0,3.7,4.8,3.1,4.9,7.1c0,0.1,0,0.1,0.1,0.1c0.1,0,0.1,0,0.1-0.1
			c0.1-4,4.9-3.4,4.9-7.1c0-3.7-4.8-3.1-4.9-7.2C311.3,718.1,311.3,718.1,311.2,718.1L311.2,718.1z"/>
	</g>
	<g>
		<path class="st0" d="M300.7,731.4c-0.4-1.4-1.5-2.1-2.5-2.8c-1.2-0.8-2.2-1.5-2.2-3.2c0-1.7,1.1-2.4,2.2-3.2
			c1-0.7,2.1-1.4,2.5-2.9c0.4,1.4,1.5,2.2,2.5,2.9c1.1,0.8,2.2,1.5,2.2,3.2c0,1.7-1.1,2.4-2.2,3.2
			C302.2,729.3,301.1,730,300.7,731.4z"/>
		<path class="st2" d="M300.7,720c0.5,1.1,1.5,1.8,2.3,2.4c1.1,0.8,2.1,1.4,2.1,3c0,1.6-1,2.2-2.1,3c-0.9,0.6-1.8,1.2-2.3,2.3
			c-0.5-1.1-1.5-1.7-2.3-2.3c-1.1-0.8-2.1-1.4-2.1-3c0-1.6,1-2.2,2.1-3C299.2,721.8,300.1,721.1,300.7,720 M300.7,718.1
			c-0.1,0-0.1,0-0.1,0.1c-0.1,4.1-4.9,3.5-4.9,7.2c0,3.7,4.8,3.1,4.9,7.1c0,0.1,0,0.1,0.1,0.1c0.1,0,0.1,0,0.1-0.1
			c0.1-4,4.9-3.4,4.9-7.1c0-3.7-4.8-3.1-4.9-7.2C300.8,718.1,300.7,718.1,300.7,718.1L300.7,718.1z"/>
	</g>
	<g>
		<path class="st0" d="M300.7,716.8c-1.2,0-2.2-1.5-2.2-3.4s1-3.4,2.2-3.4s2.2,1.5,2.2,3.4S301.9,716.8,300.7,716.8z"/>
		<path class="st2" d="M300.7,710.3c1.1,0,2,1.4,2,3.1c0,1.7-0.9,3.1-2,3.1s-2-1.4-2-3.1C298.7,711.7,299.6,710.3,300.7,710.3
			 M300.7,709.8c-1.4,0-2.5,1.6-2.5,3.6c0,2,1.1,3.6,2.5,3.6s2.5-1.6,2.5-3.6C303.2,711.4,302,709.8,300.7,709.8L300.7,709.8z"/>
	</g>
	<g>
		<path class="st0" d="M300.7,740.6c-1.2,0-2.2-1.5-2.2-3.4s1-3.4,2.2-3.4s2.2,1.5,2.2,3.4S301.9,740.6,300.7,740.6z"/>
		<path class="st2" d="M300.7,734.1c1.1,0,2,1.4,2,3.1c0,1.7-0.9,3.1-2,3.1s-2-1.4-2-3.1C298.7,735.5,299.6,734.1,300.7,734.1
			 M300.7,733.6c-1.4,0-2.5,1.6-2.5,3.6c0,2,1.1,3.6,2.5,3.6s2.5-1.6,2.5-3.6C303.2,735.2,302,733.6,300.7,733.6L300.7,733.6z"/>
	</g>
	<g>
		<path class="st0" d="M290.1,716.8c-1.2,0-2.2-1.5-2.2-3.4s1-3.4,2.2-3.4s2.2,1.5,2.2,3.4S291.3,716.8,290.1,716.8z"/>
		<path class="st2" d="M290.1,710.3c1.1,0,2,1.4,2,3.1c0,1.7-0.9,3.1-2,3.1s-2-1.4-2-3.1C288.1,711.7,289,710.3,290.1,710.3
			 M290.1,709.8c-1.4,0-2.5,1.6-2.5,3.6c0,2,1.1,3.6,2.5,3.6c1.4,0,2.5-1.6,2.5-3.6C292.6,711.4,291.5,709.8,290.1,709.8
			L290.1,709.8z"/>
	</g>
	<g>
		<path class="st0" d="M290.1,740.6c-1.2,0-2.2-1.5-2.2-3.4s1-3.4,2.2-3.4s2.2,1.5,2.2,3.4S291.3,740.6,290.1,740.6z"/>
		<path class="st2" d="M290.1,734.1c1.1,0,2,1.4,2,3.1c0,1.7-0.9,3.1-2,3.1s-2-1.4-2-3.1C288.1,735.5,289,734.1,290.1,734.1
			 M290.1,733.6c-1.4,0-2.5,1.6-2.5,3.6c0,2,1.1,3.6,2.5,3.6c1.4,0,2.5-1.6,2.5-3.6C292.6,735.2,291.5,733.6,290.1,733.6
			L290.1,733.6z"/>
	</g>
</g>
<line class="st3" x1="32.8" y1="259.5" x2="568.6" y2="259.5"/>
</svg>
