<?xml version="1.0" encoding="utf-8"?>
<!-- Generator: Adobe Illustrator 27.2.0, SVG Export Plug-In . SVG Version: 6.00 Build 0)  -->
<svg version="1.0" id="Layer_1" xmlns="http://www.w3.org/2000/svg" xmlns:xlink="http://www.w3.org/1999/xlink" x="0px" y="0px"
	 viewBox="0 0 622.5 803.2" style="enable-background:new 0 0 622.5 803.2;" xml:space="preserve">
<style type="text/css">
	.st0{fill:#35202D;}
</style>
<g>
	<path class="st0" d="M52.4,162.4h-9.9v16.4h-8.5v-39.1h8.5v15.8h9.9v-15.8h8.5v39.1h-8.5V162.4z"/>
	<path class="st0" d="M69.5,172.3h9.2v-15.9h-9.2v-6.5H87v22.4h8.5v6.5h-26V172.3z M82.9,146.2c-1.9,0-3.2-0.4-3.9-1.1
		c-0.7-0.8-1.1-1.7-1.1-2.8v-1.6c0-1.1,0.4-2.1,1.1-2.8c0.7-0.7,2-1.1,3.9-1.1c1.9,0,3.2,0.4,3.9,1.1c0.7,0.7,1.1,1.7,1.1,2.8v1.6
		c0,1.1-0.4,2-1.1,2.8C86,145.8,84.7,146.2,82.9,146.2z"/>
	<path class="st0" d="M101.2,137.3h8.3v17.9h0.4c0.7-1.7,1.7-3.2,3.1-4.3c1.3-1.1,3.2-1.7,5.5-1.7c1.6,0,3.1,0.3,4.4,0.9
		c1.3,0.6,2.5,1.5,3.4,2.7c1,1.2,1.7,2.8,2.2,4.7c0.5,1.9,0.8,4.2,0.8,6.8c0,2.6-0.3,4.9-0.8,6.8c-0.5,1.9-1.3,3.5-2.2,4.7
		c-1,1.2-2.1,2.1-3.4,2.7c-1.3,0.6-2.8,0.9-4.4,0.9c-2.3,0-4.1-0.6-5.5-1.7c-1.3-1.1-2.4-2.6-3.1-4.3h-0.4v5.3h-8.3V137.3z
		 M114.8,173c1.9,0,3.3-0.6,4.3-1.7c1-1.1,1.5-2.7,1.5-4.7v-4.5c0-2-0.5-3.6-1.5-4.7c-1-1.1-2.4-1.7-4.3-1.7c-1.5,0-2.7,0.4-3.8,1.1
		c-1.1,0.7-1.6,1.8-1.6,3.3v8.5c0,1.5,0.5,2.6,1.6,3.3C112.1,172.6,113.4,173,114.8,173z"/>
	<path class="st0" d="M136.7,172.3h9.2v-15.9h-9.2v-6.5h17.5v22.4h8.5v6.5h-26V172.3z M150.1,146.2c-1.9,0-3.2-0.4-3.9-1.1
		c-0.7-0.8-1.1-1.7-1.1-2.8v-1.6c0-1.1,0.4-2.1,1.1-2.8c0.7-0.7,2-1.1,3.9-1.1c1.9,0,3.2,0.4,3.9,1.1c0.7,0.7,1.1,1.7,1.1,2.8v1.6
		c0,1.1-0.4,2-1.1,2.8C153.2,145.8,151.9,146.2,150.1,146.2z"/>
	<path class="st0" d="M181.5,179.4c-3.2,0-6-0.5-8.4-1.5c-2.4-1-4.2-2.3-5.3-4l4.6-4.3c1.1,1.2,2.4,2.2,3.9,2.9c1.5,0.7,3.2,1,5.2,1
		c1.6,0,2.9-0.3,3.9-0.8c0.9-0.5,1.4-1.3,1.4-2.3c0-0.8-0.3-1.4-1-1.7c-0.6-0.3-1.5-0.6-2.6-0.8l-4.6-0.7c-1.3-0.2-2.5-0.5-3.6-0.9
		s-2.1-0.9-2.9-1.6c-0.8-0.7-1.5-1.5-2-2.5c-0.5-1-0.7-2.1-0.7-3.5c0-3,1.2-5.4,3.5-7.1c2.3-1.7,5.6-2.6,9.7-2.6
		c2.8,0,5.3,0.4,7.3,1.1c2,0.8,3.6,1.9,4.8,3.3l-4.1,4.7c-0.9-0.9-2-1.7-3.3-2.4c-1.3-0.6-3-1-4.9-1c-3.2,0-4.8,1-4.8,2.9
		c0,0.9,0.3,1.4,1,1.8c0.6,0.3,1.5,0.6,2.6,0.8l4.6,0.7c1.3,0.2,2.5,0.5,3.6,0.9c1.1,0.4,2.1,0.9,2.9,1.6s1.5,1.5,2,2.5
		c0.5,1,0.7,2.1,0.7,3.5c0,3-1.2,5.4-3.5,7.2C189.1,178.6,185.8,179.4,181.5,179.4z"/>
	<path class="st0" d="M216.6,179.4c-2.3,0-4.3-0.3-6.1-1c-1.8-0.7-3.3-1.7-4.6-3c-1.3-1.3-2.2-2.9-2.9-4.8c-0.7-1.9-1-4-1-6.3
		c0-2.4,0.3-4.5,1-6.3c0.7-1.9,1.6-3.5,2.9-4.8c1.3-1.3,2.8-2.3,4.6-3c1.8-0.7,3.8-1,6.1-1c3.2,0,5.7,0.6,7.6,1.9
		c1.9,1.3,3.4,3,4.4,5.1l-6.4,3.5c-0.5-1.1-1.2-2.1-2-2.8c-0.8-0.7-2-1.1-3.6-1.1c-1.9,0-3.4,0.6-4.4,1.7c-1,1.1-1.5,2.6-1.5,4.5
		v4.7c0,1.9,0.5,3.4,1.5,4.5c1,1.1,2.5,1.7,4.5,1.7c1.6,0,2.9-0.4,3.8-1.1c0.9-0.7,1.7-1.7,2.3-2.9l6.3,3.6c-1,2.1-2.6,3.8-4.6,5.1
		C222.5,178.8,219.9,179.4,216.6,179.4z"/>
	<path class="st0" d="M253.9,173.5h-0.3c-0.6,1.6-1.6,3-3,4.2c-1.4,1.2-3.2,1.7-5.5,1.7c-1.4,0-2.7-0.2-3.8-0.7
		c-1.2-0.5-2.1-1.2-3-2.1c-0.8-0.9-1.5-2.1-1.9-3.4c-0.5-1.3-0.7-2.9-0.7-4.6v-18.7h8.3v17.6c0,3.7,1.6,5.6,4.9,5.6
		c0.6,0,1.3-0.1,1.9-0.3c0.6-0.2,1.2-0.4,1.6-0.8c0.5-0.4,0.8-0.8,1.1-1.3c0.3-0.5,0.4-1.1,0.4-1.8v-19h8.3v28.9h-8.3V173.5z"/>
	<path class="st0" d="M282.3,179.4c-3.2,0-6-0.5-8.4-1.5c-2.4-1-4.2-2.3-5.3-4l4.6-4.3c1.1,1.2,2.4,2.2,3.9,2.9c1.5,0.7,3.2,1,5.2,1
		c1.6,0,2.9-0.3,3.9-0.8c0.9-0.5,1.4-1.3,1.4-2.3c0-0.8-0.3-1.4-1-1.7c-0.6-0.3-1.5-0.6-2.6-0.8l-4.6-0.7c-1.3-0.2-2.5-0.5-3.6-0.9
		s-2.1-0.9-2.9-1.6c-0.8-0.7-1.5-1.5-2-2.5c-0.5-1-0.7-2.1-0.7-3.5c0-3,1.2-5.4,3.5-7.1c2.3-1.7,5.6-2.6,9.7-2.6
		c2.8,0,5.3,0.4,7.3,1.1c2,0.8,3.6,1.9,4.8,3.3l-4.1,4.7c-0.9-0.9-2-1.7-3.3-2.4c-1.3-0.6-3-1-4.9-1c-3.2,0-4.8,1-4.8,2.9
		c0,0.9,0.3,1.4,1,1.8c0.6,0.3,1.5,0.6,2.6,0.8l4.6,0.7c1.3,0.2,2.5,0.5,3.6,0.9c1.1,0.4,2.1,0.9,2.9,1.6s1.5,1.5,2,2.5
		c0.5,1,0.7,2.1,0.7,3.5c0,3-1.2,5.4-3.5,7.2C289.9,178.6,286.6,179.4,282.3,179.4z"/>
	<path class="st0" d="M354.1,146.6v32.2h-8.4v-32.2h-11.3v-6.9h30.9v6.9H354.1z"/>
	<path class="st0" d="M384.2,179.4c-4.9,0-8.5-1.3-11-4c-2.5-2.7-3.8-6.3-3.8-11c0-2.4,0.3-4.5,1-6.4c0.7-1.9,1.6-3.5,2.8-4.8
		c1.2-1.3,2.7-2.3,4.4-3c1.7-0.7,3.7-1,5.9-1c2.2,0,4.1,0.3,5.8,1c1.7,0.7,3.2,1.7,4.4,2.9c1.2,1.3,2.1,2.8,2.8,4.6
		c0.7,1.8,1,3.8,1,6.1v2.5h-19.8v0.5c0,1.9,0.6,3.4,1.7,4.5c1.2,1.1,2.9,1.7,5.1,1.7c1.7,0,3.2-0.3,4.4-1c1.2-0.7,2.3-1.5,3.2-2.6
		l4.5,4.9c-1.1,1.4-2.7,2.6-4.7,3.6C389.9,178.9,387.3,179.4,384.2,179.4z M383.6,155.1c-1.8,0-3.2,0.6-4.3,1.7
		c-1.1,1.1-1.6,2.6-1.6,4.5v0.4h11.6v-0.4c0-1.9-0.5-3.4-1.5-4.5C386.8,155.7,385.4,155.1,383.6,155.1z"/>
	<path class="st0" d="M418.2,179.4c-2.3,0-4.3-0.3-6.1-1c-1.8-0.7-3.3-1.7-4.6-3c-1.3-1.3-2.2-2.9-2.9-4.8c-0.7-1.9-1-4-1-6.3
		c0-2.4,0.3-4.5,1-6.3c0.7-1.9,1.6-3.5,2.9-4.8c1.3-1.3,2.8-2.3,4.6-3c1.8-0.7,3.8-1,6.1-1c3.2,0,5.7,0.6,7.6,1.9
		c1.9,1.3,3.4,3,4.4,5.1l-6.4,3.5c-0.5-1.1-1.2-2.1-2-2.8c-0.8-0.7-2-1.1-3.6-1.1c-1.9,0-3.4,0.6-4.4,1.7c-1,1.1-1.5,2.6-1.5,4.5
		v4.7c0,1.9,0.5,3.4,1.5,4.5c1,1.1,2.5,1.7,4.5,1.7c1.6,0,2.9-0.4,3.8-1.1c0.9-0.7,1.7-1.7,2.3-2.9l6.3,3.6c-1,2.1-2.6,3.8-4.6,5.1
		C424.1,178.8,421.5,179.4,418.2,179.4z"/>
	<path class="st0" d="M437.5,137.3h8.3v17.8h0.3c0.3-0.8,0.7-1.6,1.2-2.3c0.5-0.7,1.1-1.3,1.8-1.9c0.7-0.5,1.5-1,2.4-1.3
		c0.9-0.3,2-0.5,3.1-0.5c1.4,0,2.7,0.2,3.8,0.7c1.2,0.5,2.1,1.2,3,2.1c0.8,0.9,1.5,2.1,1.9,3.4c0.5,1.3,0.7,2.9,0.7,4.6v18.7h-8.3
		v-17.6c0-3.7-1.6-5.6-4.9-5.6c-0.6,0-1.3,0.1-1.9,0.3c-0.6,0.2-1.2,0.4-1.7,0.8c-0.5,0.4-0.9,0.8-1.1,1.3c-0.3,0.5-0.4,1.1-0.4,1.8
		v19h-8.3V137.3z"/>
	<path class="st0" d="M33.7,246l-2.4-39.1h7.2l1.1,23.4l0.3,7.4h0.5l3.4-22.3h7.6l3.4,22.3h0.5l0.3-7.2l1.1-23.6h6.9L61.2,246H50.6
		l-2.9-21.6h-0.6L44.3,246H33.7z"/>
	<path class="st0" d="M86,229.6h-9.9V246h-8.5v-39.1h8.5v15.8H86v-15.8h8.5V246H86V229.6z"/>
	<path class="st0" d="M102.1,246v-6.2h8.4v-26.7h-8.4v-6.2h25.2v6.2h-8.4v26.7h8.4v6.2H102.1z"/>
	<path class="st0" d="M152.5,213.8V246h-8.4v-32.2h-11.3v-6.9h30.9v6.9H152.5z"/>
	<path class="st0" d="M169.5,246v-39.1h25v6.9h-16.6v9h16v6.9h-16v9.5h16.6v6.9H169.5z"/>
	<path class="st0" d="M202.9,246v-39.1H218c1.9,0,3.6,0.3,5.1,0.9c1.5,0.6,2.8,1.4,3.8,2.5c1,1.1,1.8,2.4,2.3,3.9
		c0.5,1.5,0.8,3.2,0.8,5.2c0,1.9-0.3,3.6-0.8,5.2c-0.5,1.5-1.3,2.8-2.3,3.9c-1,1.1-2.3,1.9-3.8,2.5c-1.5,0.6-3.2,0.9-5.1,0.9h-6.7
		V246H202.9z M211.4,225h4.5c2,0,3.4-0.4,4.1-1.1c0.8-0.7,1.1-2,1.1-3.7v-1.7c0-1.7-0.4-2.9-1.1-3.7c-0.8-0.7-2.1-1.1-4.1-1.1h-4.5
		V225z"/>
	<path class="st0" d="M256.6,246l-2.5-9.4h-10.7l-2.4,9.4h-8.5l10.6-39.1H255l10.6,39.1H256.6z M249.1,215h-0.4l-3.8,14.8h8.1
		L249.1,215z"/>
	<path class="st0" d="M270.1,246v-39.1h15.1c1.9,0,3.6,0.3,5.1,0.9c1.5,0.6,2.8,1.4,3.8,2.5c1,1.1,1.8,2.4,2.3,3.9
		c0.5,1.5,0.8,3.2,0.8,5.2c0,1.9-0.3,3.6-0.8,5.2c-0.5,1.5-1.3,2.8-2.3,3.9c-1,1.1-2.3,1.9-3.8,2.5c-1.5,0.6-3.2,0.9-5.1,0.9h-6.7
		V246H270.1z M278.6,225h4.5c2,0,3.4-0.4,4.1-1.1c0.8-0.7,1.1-2,1.1-3.7v-1.7c0-1.7-0.4-2.9-1.1-3.7c-0.8-0.7-2.1-1.1-4.1-1.1h-4.5
		V225z"/>
	<path class="st0" d="M303.9,246v-39.1h25v6.9h-16.6v9h16v6.9h-16v9.5h16.6v6.9H303.9z"/>
	<path class="st0" d="M345.6,246h-8.3v-39.1h15.1c1.9,0,3.6,0.3,5.1,0.9c1.5,0.6,2.8,1.4,3.8,2.5c1,1.1,1.8,2.4,2.3,3.9
		c0.5,1.5,0.8,3.2,0.8,5.2c0,2.8-0.6,5.1-1.8,7.1c-1.2,2-2.9,3.3-5.1,3.9l7.7,15.6H356l-6.6-14.5h-3.9V246z M350.4,225
		c2,0,3.4-0.4,4.1-1.1c0.8-0.7,1.1-2,1.1-3.7v-1.7c0-1.7-0.4-2.9-1.1-3.7c-0.8-0.7-2.1-1.1-4.1-1.1h-4.8V225H350.4z"/>
</g>
<g>
	<path class="st0" d="M43.2,346h-8.3v-39.1H50c1.9,0,3.6,0.3,5.1,0.9c1.5,0.6,2.8,1.4,3.8,2.5c1,1.1,1.8,2.4,2.3,3.9
		c0.5,1.5,0.8,3.2,0.8,5.2c0,2.8-0.6,5.1-1.8,7.1c-1.2,2-2.9,3.3-5.1,3.9l7.7,15.6h-9.2l-6.6-14.5h-3.9V346z M48,325
		c2,0,3.4-0.4,4.1-1.1c0.8-0.7,1.1-2,1.1-3.7v-1.7c0-1.7-0.4-2.9-1.1-3.7c-0.8-0.7-2.1-1.1-4.1-1.1h-4.8V325H48z"/>
	<path class="st0" d="M68.7,346v-39.1h25v6.9H77.1v9h16v6.9h-16v9.5h16.6v6.9H68.7z"/>
	<path class="st0" d="M101.4,306.9H114c5.3,0,9.2,1.7,11.7,5c2.5,3.4,3.8,8.2,3.8,14.5c0,6.3-1.3,11.1-3.8,14.5
		c-2.5,3.4-6.4,5-11.7,5h-12.6V306.9z M113.5,339.3c2.5,0,4.3-0.8,5.5-2.4c1.2-1.6,1.7-3.9,1.7-7v-7.1c0-3-0.6-5.3-1.7-6.9
		c-1.2-1.6-3-2.4-5.5-2.4h-3.8v25.9H113.5z"/>
	<path class="st0" d="M142.9,306.9v24.8c0,1.2,0,2.4,0.1,3.4c0.1,1,0.3,1.9,0.7,2.6c0.4,0.7,0.9,1.3,1.6,1.7
		c0.7,0.4,1.7,0.6,2.9,0.6c1.2,0,2.2-0.2,2.9-0.6c0.7-0.4,1.2-0.9,1.6-1.7c0.4-0.7,0.6-1.6,0.7-2.6c0.1-1,0.1-2.2,0.1-3.4v-24.8h8.4
		v23.6c0,2.7-0.2,5-0.5,7.1c-0.4,2-1,3.7-2,5c-1,1.3-2.4,2.4-4.2,3s-4.1,1-6.9,1c-2.8,0-5.2-0.3-6.9-1s-3.2-1.7-4.2-3
		c-1-1.3-1.7-3-2-5c-0.4-2-0.5-4.4-0.5-7.1v-23.6H142.9z"/>
	<path class="st0" d="M198.2,346h-9.6l-4-7.8l-2.7-6.2h-0.5l-2.8,6.2l-4.1,7.8h-8.8l11-20.2l-10.2-18.9h9.6l3.2,6.2l2.9,6.3h0.4
		l2.9-6.3l3.4-6.2h8.8l-10.2,19L198.2,346z"/>
	<path class="st0" d="M47.5,413.8c-5.2,0-9.1-1.8-11.6-5.3c-2.5-3.5-3.7-8.5-3.7-14.9c0-6.4,1.2-11.3,3.7-14.9
		c2.5-3.5,6.3-5.3,11.6-5.3c5.2,0,9.1,1.8,11.6,5.3c2.5,3.5,3.7,8.5,3.7,14.9c0,6.4-1.2,11.3-3.7,14.9
		C56.5,412.1,52.7,413.8,47.5,413.8z M47.5,407.2c2.5,0,4.2-0.9,5.2-2.6c1-1.8,1.5-4.2,1.5-7.3V390c0-3.1-0.5-5.6-1.5-7.3
		c-1-1.8-2.7-2.6-5.2-2.6c-2.5,0-4.2,0.9-5.2,2.6c-1,1.8-1.5,4.2-1.5,7.3v7.3c0,3.1,0.5,5.6,1.5,7.3C43.2,406.3,45,407.2,47.5,407.2
		z M47.5,396.9c-1.3,0-2.2-0.3-2.7-0.8c-0.5-0.5-0.8-1.2-0.8-1.9V393c0-0.7,0.3-1.4,0.8-1.9c0.5-0.5,1.4-0.8,2.7-0.8
		c1.3,0,2.2,0.3,2.7,0.8c0.5,0.5,0.8,1.2,0.8,1.9v1.2c0,0.7-0.3,1.4-0.8,1.9C49.7,396.7,48.8,396.9,47.5,396.9z"/>
	<path class="st0" d="M81.1,413.8c-5.2,0-9.1-1.8-11.6-5.3c-2.5-3.5-3.7-8.5-3.7-14.9c0-6.4,1.2-11.3,3.7-14.9
		c2.5-3.5,6.3-5.3,11.6-5.3c5.2,0,9.1,1.8,11.6,5.3c2.5,3.5,3.7,8.5,3.7,14.9c0,6.4-1.2,11.3-3.7,14.9
		C90.1,412.1,86.3,413.8,81.1,413.8z M81.1,407.2c2.5,0,4.2-0.9,5.2-2.6c1-1.8,1.5-4.2,1.5-7.3V390c0-3.1-0.5-5.6-1.5-7.3
		c-1-1.8-2.7-2.6-5.2-2.6c-2.5,0-4.2,0.9-5.2,2.6c-1,1.8-1.5,4.2-1.5,7.3v7.3c0,3.1,0.5,5.6,1.5,7.3
		C76.8,406.3,78.6,407.2,81.1,407.2z M81.1,396.9c-1.3,0-2.2-0.3-2.7-0.8c-0.5-0.5-0.8-1.2-0.8-1.9V393c0-0.7,0.3-1.4,0.8-1.9
		c0.5-0.5,1.4-0.8,2.7-0.8c1.3,0,2.2,0.3,2.7,0.8c0.5,0.5,0.8,1.2,0.8,1.9v1.2c0,0.7-0.3,1.4-0.8,1.9
		C83.3,396.7,82.4,396.9,81.1,396.9z"/>
	<path class="st0" d="M129.3,388.9c0,2.8-0.4,5.4-1.3,7.8c-0.9,2.4-2,4.7-3.3,6.7c-1.4,2.1-2.9,3.9-4.6,5.6c-1.7,1.6-3.4,3-5.1,4.1
		h-11.6c2.4-1.7,4.6-3.3,6.5-4.8c1.9-1.5,3.6-3.1,5-4.6c1.4-1.5,2.6-3.1,3.5-4.8c0.9-1.6,1.6-3.4,2-5.3l-0.5-0.2
		c-0.3,0.8-0.8,1.5-1.3,2.2s-1.1,1.3-1.8,1.9c-0.7,0.5-1.5,1-2.5,1.3c-1,0.3-2.1,0.5-3.3,0.5c-1.6,0-3.2-0.3-4.6-0.9
		c-1.4-0.6-2.6-1.4-3.7-2.5c-1-1.1-1.8-2.3-2.4-3.8c-0.6-1.5-0.9-3.2-0.9-5.1c0-2,0.4-3.8,1.1-5.5c0.7-1.7,1.7-3.1,3-4.3
		c1.3-1.2,2.8-2.2,4.7-2.8c1.8-0.7,3.9-1,6.1-1c2.4,0,4.5,0.4,6.3,1.1s3.4,1.8,4.7,3.1c1.3,1.4,2.2,3,2.9,4.9
		C129,384.4,129.3,386.6,129.3,388.9z M114.5,392.8c1.9,0,3.4-0.5,4.5-1.5c1.1-1,1.6-2.5,1.6-4.5V386c0-1.9-0.5-3.5-1.5-4.5
		c-1-1.1-2.5-1.6-4.6-1.6c-2,0-3.5,0.5-4.6,1.6c-1,1.1-1.6,2.6-1.6,4.5v0.8c0,2,0.5,3.4,1.6,4.5S112.5,392.8,114.5,392.8z"/>
	<path class="st0" d="M140.6,413.2l13.4-32.3h-12.7v7.1h-7.1v-13.9h28.1v7.3l-12.9,31.8H140.6z"/>
	<path class="st0" d="M194.5,381.4h-18.1l-0.9,12.4h0.5c0.4-0.9,0.9-1.7,1.4-2.5c0.5-0.8,1.1-1.4,1.8-2c0.7-0.5,1.5-1,2.5-1.3
		c0.9-0.3,2-0.4,3.2-0.4c1.6,0,3.1,0.3,4.6,0.8c1.4,0.6,2.7,1.4,3.8,2.4c1.1,1.1,2,2.4,2.6,3.9c0.6,1.5,1,3.3,1,5.2
		c0,2-0.3,3.8-1,5.5c-0.7,1.7-1.7,3.1-2.9,4.4c-1.3,1.2-2.9,2.2-4.8,2.9c-1.9,0.7-4.1,1-6.5,1c-1.9,0-3.6-0.2-5.1-0.6
		c-1.5-0.4-2.8-1-3.9-1.6c-1.1-0.7-2.1-1.5-3-2.4c-0.8-0.9-1.6-1.8-2.2-2.8l6.1-4.8c0.4,0.7,0.9,1.5,1.4,2.1
		c0.5,0.7,1.1,1.3,1.7,1.8c0.7,0.5,1.4,0.9,2.2,1.2c0.8,0.3,1.7,0.4,2.8,0.4c2.1,0,3.7-0.6,4.7-1.7s1.6-2.7,1.6-4.6v-0.4
		c0-1.8-0.5-3.3-1.6-4.3c-1.1-1-2.6-1.6-4.5-1.6c-1.6,0-2.9,0.3-3.9,0.9c-1,0.6-1.8,1.2-2.3,1.8l-6.9-1l1.5-22.1h24.2V381.4z"/>
	<path class="st0" d="M203.9,413.2v-6.8h10.5v-26.2h-0.5l-8,10.4l-5.4-4.2l9.4-12.3h12.9v32.3h8.3v6.8H203.9z"/>
</g>
<rect x="1.5" y="274.5" class="st0" width="619.6" height="5"/>
<g>
	<g>
		<ellipse class="st0" cx="331.5" cy="706.5" rx="4.8" ry="7"/>
	</g>
	<g>
		<ellipse class="st0" cx="331.5" cy="752" rx="4.8" ry="7"/>
	</g>
	<g>
		<path class="st0" d="M291,743.2c-0.1,0-0.2-0.1-0.2-0.2c-0.2-7.6-9.3-6.5-9.3-13.6c0-7.2,9.1-6,9.3-13.8c0-0.1,0.1-0.2,0.2-0.2
			l0,0c0.1,0,0.2,0.1,0.2,0.2c0.2,7.8,9.3,6.7,9.3,13.8c0,7.2-9.1,6-9.3,13.6C291.2,743.1,291.1,743.2,291,743.2L291,743.2z"/>
	</g>
	<g>
		<path class="st0" d="M331.5,743.2c-0.1,0-0.2-0.1-0.2-0.2c-0.2-7.6-9.3-6.5-9.3-13.6c0-7.2,9.1-6,9.3-13.8c0-0.1,0.1-0.2,0.2-0.2
			l0,0c0.1,0,0.2,0.1,0.2,0.2c0.2,7.8,9.3,6.7,9.3,13.8c0,7.2-9.1,6-9.3,13.6C331.7,743.1,331.6,743.2,331.5,743.2L331.5,743.2z"/>
	</g>
	<g>
		<path class="st0" d="M311.3,743.2c-0.1,0-0.2-0.1-0.2-0.2c-0.2-7.6-9.3-6.5-9.3-13.6c0-7.2,9.1-6,9.3-13.8c0-0.1,0.1-0.2,0.2-0.2
			l0,0c0.1,0,0.2,0.1,0.2,0.2c0.2,7.8,9.3,6.7,9.3,13.8c0,7.2-9.1,6-9.3,13.6C311.5,743.1,311.4,743.2,311.3,743.2L311.3,743.2z"/>
	</g>
	<g>
		<ellipse class="st0" cx="311.3" cy="706.5" rx="4.8" ry="7"/>
	</g>
	<g>
		<ellipse class="st0" cx="311.3" cy="752" rx="4.8" ry="7"/>
	</g>
	<g>
		<ellipse class="st0" cx="291" cy="706.5" rx="4.8" ry="7"/>
	</g>
	<g>
		<ellipse class="st0" cx="291" cy="752" rx="4.8" ry="7"/>
	</g>
</g>
</svg>
