<?xml version="1.0" encoding="utf-8"?>
<!-- Generator: Adobe Illustrator 27.2.0, SVG Export Plug-In . SVG Version: 6.00 Build 0)  -->
<svg version="1.0" id="Layer_1" xmlns="http://www.w3.org/2000/svg" xmlns:xlink="http://www.w3.org/1999/xlink" x="0px" y="0px"
	 viewBox="0 0 622.5 803.2" style="enable-background:new 0 0 622.5 803.2;" xml:space="preserve">
<style type="text/css">
	.st0{fill:#33252D;}
	.st1{fill:none;stroke:#33252D;stroke-width:2;stroke-miterlimit:10;}
</style>
<g>
	<g>
		<path class="st0" d="M27.3,215.6l-1.9-27h3.8l1,15.7l0.4,6.9h0.3l3.1-16.1h4.3l3.1,16.1h0.3l0.4-6.9l1-15.7h3.6l-1.9,27h-5.8
			L36.1,200h-0.3l-2.7,15.6H27.3z"/>
		<path class="st0" d="M63.6,203.7h-9v11.9h-4.3v-27h4.3v11.5h9v-11.5H68v27h-4.3V203.7z"/>
		<path class="st0" d="M73.8,215.6v-3.3h6.3v-20.4h-6.3v-3.3h17v3.3h-6.3v20.4h6.3v3.3H73.8z"/>
		<path class="st0" d="M107.7,192.2v23.4h-4.3v-23.4h-8.5v-3.6h21.3v3.6H107.7z"/>
		<path class="st0" d="M120.5,215.6v-27h16.9v3.6h-12.6v7.8h12.1v3.6h-12.1v8.2h12.6v3.6H120.5z"/>
		<path class="st0" d="M143.6,215.6v-27h10.1c2.6,0,4.5,0.7,5.9,2.2c1.4,1.4,2,3.4,2,5.9c0,2.5-0.7,4.5-2,5.9
			c-1.4,1.4-3.3,2.2-5.9,2.2h-5.8v10.8H143.6z M147.9,201.3h5.1c2.7,0,4-1.2,4-3.7v-1.7c0-2.5-1.3-3.7-4-3.7h-5.1V201.3z"/>
		<path class="st0" d="M181.4,215.6l-2-7.2h-8.6l-2,7.2h-4.4l7.9-27h5.9l7.9,27H181.4z M175.2,193h-0.3l-3.3,11.8h7L175.2,193z"/>
		<path class="st0" d="M190,215.6v-27h10.1c2.6,0,4.5,0.7,5.9,2.2c1.4,1.4,2,3.4,2,5.9c0,2.5-0.7,4.5-2,5.9
			c-1.4,1.4-3.3,2.2-5.9,2.2h-5.8v10.8H190z M194.3,201.3h5.1c2.7,0,4-1.2,4-3.7v-1.7c0-2.5-1.3-3.7-4-3.7h-5.1V201.3z"/>
		<path class="st0" d="M213.3,215.6v-27h16.9v3.6h-12.6v7.8h12.1v3.6h-12.1v8.2h12.6v3.6H213.3z"/>
		<path class="st0" d="M240.7,215.6h-4.3v-27h10.1c2.6,0,4.5,0.7,5.9,2.2c1.4,1.4,2,3.4,2,5.9c0,2.1-0.5,3.8-1.5,5.1
			c-1,1.3-2.4,2.2-4.3,2.5l6.2,11.3H250l-5.7-10.9h-3.6V215.6z M245.9,201.2c2.7,0,4-1.2,4-3.7v-1.7c0-2.5-1.3-3.7-4-3.7h-5.2v9
			H245.9z"/>
		<path class="st0" d="M26.8,249.1v-2.6h5.5v-14.6h-0.2l-4.5,4.8l-1.9-1.7l5-5.4h4.8v16.9h4.7v2.6H26.8z"/>
		<path class="st0" d="M60.2,249.1v-19.5h7.3c1.9,0,3.3,0.5,4.3,1.6c1,1,1.5,2.5,1.5,4.3c0,1.8-0.5,3.3-1.5,4.3
			c-1,1-2.4,1.6-4.3,1.6h-4.2v7.8H60.2z M63.3,238.8H67c1.9,0,2.9-0.9,2.9-2.7v-1.2c0-1.8-1-2.7-2.9-2.7h-3.7V238.8z"/>
		<path class="st0" d="M88.4,249.1c-0.9,0-1.5-0.2-2-0.7c-0.4-0.4-0.7-1-0.8-1.8h-0.1c-0.3,0.9-0.8,1.6-1.5,2
			c-0.7,0.5-1.7,0.7-2.8,0.7c-1.5,0-2.6-0.4-3.5-1.2c-0.9-0.8-1.3-1.8-1.3-3.2c0-1.4,0.5-2.5,1.5-3.2c1-0.7,2.6-1.1,4.8-1.1h2.8
			v-1.1c0-2-1-2.9-3.1-2.9c-0.9,0-1.7,0.2-2.3,0.5c-0.6,0.4-1.1,0.8-1.5,1.4l-1.8-1.5c0.4-0.8,1.1-1.5,2.1-2c1-0.6,2.2-0.9,3.7-0.9
			c1.8,0,3.3,0.4,4.3,1.3c1,0.9,1.6,2.1,1.6,3.8v7.2h1.8v2.4H88.4z M82,247.2c1,0,1.8-0.2,2.4-0.7c0.6-0.4,0.9-1,0.9-1.7v-2.1h-2.7
			c-2.2,0-3.3,0.7-3.3,2v0.6c0,0.6,0.2,1.1,0.7,1.5C80.5,247.1,81.2,247.2,82,247.2z"/>
		<path class="st0" d="M107.3,250.7c0,1.5-0.6,2.6-1.9,3.3c-1.2,0.7-3.1,1.1-5.7,1.1c-1.2,0-2.3-0.1-3.1-0.2
			c-0.8-0.2-1.5-0.4-2.1-0.7c-0.5-0.3-0.9-0.7-1.1-1.1c-0.2-0.4-0.3-0.9-0.3-1.5c0-0.8,0.2-1.4,0.7-1.8c0.4-0.4,1.1-0.8,1.9-1v-0.3
			c-0.5-0.2-0.9-0.4-1.2-0.8c-0.3-0.3-0.4-0.8-0.4-1.3c0-0.7,0.2-1.2,0.7-1.6s1.1-0.6,1.9-0.8v-0.1c-0.9-0.4-1.6-1-2-1.7
			c-0.5-0.7-0.7-1.6-0.7-2.7c0-0.8,0.1-1.5,0.4-2.1c0.3-0.6,0.7-1.2,1.2-1.6c0.5-0.4,1.1-0.8,1.8-1c0.7-0.2,1.5-0.4,2.4-0.4
			c1,0,1.9,0.2,2.7,0.5v-0.5c0-0.6,0.2-1,0.5-1.4c0.3-0.4,0.8-0.6,1.5-0.6h2.6v2.4h-3.4v0.7c0.6,0.4,1.1,1,1.5,1.6
			c0.3,0.7,0.5,1.4,0.5,2.3c0,0.8-0.1,1.5-0.4,2.1c-0.3,0.6-0.7,1.2-1.2,1.6c-0.5,0.4-1.1,0.8-1.8,1c-0.7,0.2-1.5,0.3-2.4,0.3
			c-0.6,0-1.2-0.1-1.8-0.2c-0.3,0.1-0.7,0.3-1,0.5s-0.5,0.5-0.5,0.9c0,0.4,0.2,0.7,0.6,0.8c0.4,0.1,1,0.2,1.6,0.2h3.2
			c1.9,0,3.3,0.4,4.2,1.1C106.9,248.5,107.3,249.5,107.3,250.7z M104.4,250.9c0-0.5-0.2-0.9-0.6-1.2c-0.4-0.3-1.1-0.4-2.1-0.4h-5
			c-0.7,0.3-1.1,0.9-1.1,1.6c0,0.5,0.2,1,0.7,1.4c0.5,0.4,1.2,0.6,2.3,0.6h2.3c1.2,0,2-0.2,2.6-0.5
			C104.1,252,104.4,251.5,104.4,250.9z M99.6,242.4c1,0,1.7-0.2,2.2-0.7c0.5-0.5,0.7-1.1,0.7-1.9V239c0-0.8-0.2-1.4-0.7-1.9
			c-0.5-0.5-1.2-0.7-2.2-0.7c-1,0-1.7,0.2-2.2,0.7c-0.5,0.5-0.7,1.1-0.7,1.9v0.8c0,0.8,0.2,1.4,0.7,1.9
			C97.9,242.1,98.6,242.4,99.6,242.4z"/>
		<path class="st0" d="M116.8,249.4c-1.1,0-2.1-0.2-3-0.5c-0.9-0.4-1.6-0.9-2.2-1.5c-0.6-0.7-1.1-1.4-1.4-2.4
			c-0.3-0.9-0.5-2-0.5-3.1c0-1.2,0.2-2.2,0.5-3.1c0.3-0.9,0.8-1.7,1.4-2.4c0.6-0.7,1.3-1.2,2.1-1.5c0.8-0.4,1.8-0.5,2.8-0.5
			c1,0,1.9,0.2,2.7,0.5c0.8,0.3,1.5,0.8,2.1,1.5c0.6,0.6,1,1.4,1.3,2.3c0.3,0.9,0.5,1.8,0.5,2.9v1.1h-10.3v0.5c0,1.1,0.4,2,1.1,2.8
			c0.7,0.7,1.7,1.1,2.9,1.1c0.9,0,1.7-0.2,2.4-0.6c0.7-0.4,1.2-0.9,1.6-1.6l1.9,1.7c-0.5,0.8-1.2,1.5-2.2,2.1
			C119.5,249.2,118.3,249.4,116.8,249.4z M116.6,236.7c-0.5,0-1,0.1-1.5,0.3c-0.5,0.2-0.8,0.5-1.2,0.8c-0.3,0.3-0.6,0.7-0.8,1.2
			c-0.2,0.5-0.3,1-0.3,1.5v0.2h7.2v-0.3c0-1.1-0.3-2-1-2.7C118.5,237,117.6,236.7,116.6,236.7z"/>
	</g>
	<g>
		<path class="st0" d="M34.1,61.2h-5.7v7.5h-2.7V51.6h2.7v7.3h5.7v-7.3h2.7v17.1h-2.7V61.2z"/>
		<path class="st0" d="M40.6,68.7v-2.1h4V53.7h-4v-2.1h10.8v2.1h-4v12.9h4v2.1H40.6z"/>
		<path class="st0" d="M55.4,51.6h5.9c1.6,0,2.8,0.4,3.6,1.2c0.9,0.8,1.3,1.9,1.3,3.3c0,1-0.2,1.8-0.7,2.4c-0.5,0.6-1.2,1-2,1.3v0.1
			c1,0.2,1.8,0.7,2.4,1.3s0.9,1.6,0.9,2.7c0,0.7-0.1,1.3-0.3,1.9c-0.2,0.6-0.6,1.1-1,1.5c-0.4,0.4-0.9,0.8-1.5,1
			c-0.6,0.2-1.3,0.4-2,0.4h-6.6V51.6z M60.7,59c0.9,0,1.5-0.2,2-0.5s0.7-0.9,0.7-1.7v-0.9c0-0.8-0.2-1.3-0.7-1.7s-1.1-0.5-2-0.5
			h-2.6V59H60.7z M61.1,66.6c0.9,0,1.6-0.2,2.1-0.6c0.5-0.4,0.7-1,0.7-1.8v-0.9c0-0.8-0.2-1.4-0.7-1.8C62.7,61.2,62,61,61.1,61h-3
			v5.6H61.1z"/>
		<path class="st0" d="M70,68.7v-2.1h4V53.7h-4v-2.1h10.8v2.1h-4v12.9h4v2.1H70z"/>
		<path class="st0" d="M90,69c-1.5,0-2.7-0.3-3.8-0.8c-1-0.5-1.8-1.2-2.5-2.1l1.8-1.7c0.7,0.8,1.3,1.4,2.1,1.7
			c0.7,0.4,1.6,0.6,2.5,0.6c1.1,0,1.9-0.2,2.5-0.7c0.6-0.5,0.9-1.2,0.9-2.1c0-0.7-0.2-1.3-0.6-1.7c-0.4-0.4-1.2-0.7-2.2-0.9L88.8,61
			c-0.8-0.1-1.5-0.3-2.1-0.6c-0.6-0.3-1-0.7-1.3-1.1c-0.3-0.4-0.6-0.9-0.7-1.4c-0.2-0.5-0.2-1.1-0.2-1.6c0-1.6,0.5-2.8,1.6-3.7
			c1-0.8,2.5-1.3,4.3-1.3c1.4,0,2.5,0.2,3.5,0.6s1.7,1,2.3,1.8l-1.7,1.7c-0.5-0.6-1-1-1.7-1.4s-1.4-0.5-2.4-0.5
			c-1,0-1.8,0.2-2.3,0.7c-0.5,0.4-0.8,1.1-0.8,1.9c0,0.7,0.2,1.3,0.6,1.7c0.4,0.4,1.2,0.7,2.2,0.9l1.8,0.3c1.5,0.3,2.7,0.8,3.4,1.7
			c0.7,0.8,1.1,1.9,1.1,3.1c0,0.8-0.1,1.5-0.4,2.2c-0.3,0.7-0.7,1.2-1.2,1.7c-0.5,0.5-1.2,0.8-2,1.1C91.9,68.9,91,69,90,69z"/>
		<path class="st0" d="M105.3,69c-2.2,0-3.8-0.8-4.8-2.3c-1.1-1.5-1.6-3.7-1.6-6.5c0-2.8,0.5-5,1.6-6.5c1.1-1.5,2.7-2.3,4.8-2.3
			c0.8,0,1.6,0.1,2.2,0.3c0.6,0.2,1.1,0.5,1.6,0.9c0.4,0.4,0.8,0.8,1.1,1.3c0.3,0.5,0.6,1.1,0.7,1.7l-2.5,0.8
			c-0.1-0.4-0.3-0.8-0.4-1.1c-0.2-0.3-0.4-0.6-0.6-0.9c-0.2-0.2-0.5-0.4-0.9-0.6s-0.7-0.2-1.2-0.2c-1.2,0-2.1,0.5-2.6,1.4
			c-0.6,0.9-0.8,2.2-0.8,3.8v2.9c0,1.6,0.3,2.8,0.8,3.8c0.6,0.9,1.4,1.4,2.6,1.4c0.5,0,0.9-0.1,1.2-0.2s0.6-0.3,0.9-0.6
			c0.2-0.2,0.4-0.5,0.6-0.9c0.2-0.3,0.3-0.7,0.4-1.1l2.5,0.8c-0.2,0.6-0.4,1.1-0.7,1.7c-0.3,0.5-0.7,1-1.1,1.3
			c-0.4,0.4-1,0.7-1.6,0.9C106.9,68.9,106.2,69,105.3,69z"/>
		<path class="st0" d="M116.6,51.6v10.5c0,0.7,0,1.3,0.1,1.9c0,0.6,0.2,1.1,0.4,1.5c0.2,0.4,0.5,0.7,0.9,0.9
			c0.4,0.2,0.9,0.3,1.6,0.3c0.7,0,1.2-0.1,1.6-0.3c0.4-0.2,0.7-0.5,0.9-0.9c0.2-0.4,0.3-0.9,0.4-1.5c0-0.6,0.1-1.2,0.1-1.9V51.6h2.7
			v10c0,1.2-0.1,2.3-0.2,3.2c-0.1,0.9-0.4,1.7-0.8,2.3c-0.4,0.6-1,1.1-1.7,1.4s-1.7,0.5-2.9,0.5c-1.2,0-2.2-0.2-2.9-0.5
			c-0.7-0.3-1.3-0.8-1.7-1.4c-0.4-0.6-0.7-1.4-0.8-2.3c-0.1-0.9-0.2-2-0.2-3.2v-10H116.6z"/>
		<path class="st0" d="M134.1,69c-1.5,0-2.7-0.3-3.8-0.8c-1-0.5-1.8-1.2-2.5-2.1l1.8-1.7c0.7,0.8,1.3,1.4,2.1,1.7
			c0.7,0.4,1.6,0.6,2.5,0.6c1.1,0,1.9-0.2,2.5-0.7c0.6-0.5,0.9-1.2,0.9-2.1c0-0.7-0.2-1.3-0.6-1.7c-0.4-0.4-1.2-0.7-2.2-0.9
			l-1.9-0.3c-0.8-0.1-1.5-0.3-2.1-0.6c-0.6-0.3-1-0.7-1.3-1.1c-0.3-0.4-0.6-0.9-0.7-1.4c-0.2-0.5-0.2-1.1-0.2-1.6
			c0-1.6,0.5-2.8,1.6-3.7c1-0.8,2.5-1.3,4.3-1.3c1.4,0,2.5,0.2,3.5,0.6s1.7,1,2.3,1.8l-1.7,1.7c-0.5-0.6-1-1-1.7-1.4
			c-0.6-0.4-1.4-0.5-2.4-0.5c-1,0-1.8,0.2-2.3,0.7c-0.5,0.4-0.8,1.1-0.8,1.9c0,0.7,0.2,1.3,0.6,1.7c0.4,0.4,1.2,0.7,2.2,0.9l1.8,0.3
			c1.5,0.3,2.7,0.8,3.4,1.7c0.7,0.8,1.1,1.9,1.1,3.1c0,0.8-0.1,1.5-0.4,2.2c-0.3,0.7-0.7,1.2-1.2,1.7c-0.5,0.5-1.2,0.8-2,1.1
			C136,68.9,135.1,69,134.1,69z"/>
		<path class="st0" d="M165,53.9v14.8h-2.7V53.9h-5.4v-2.3h13.5v2.3H165z"/>
		<path class="st0" d="M173.1,68.7V51.6h10.7v2.3h-8v5h7.7v2.3h-7.7v5.2h8v2.3H173.1z"/>
		<path class="st0" d="M193.6,69c-2.2,0-3.8-0.8-4.8-2.3c-1.1-1.5-1.6-3.7-1.6-6.5c0-2.8,0.5-5,1.6-6.5c1.1-1.5,2.7-2.3,4.8-2.3
			c0.8,0,1.6,0.1,2.2,0.3c0.6,0.2,1.1,0.5,1.6,0.9c0.4,0.4,0.8,0.8,1.1,1.3c0.3,0.5,0.6,1.1,0.7,1.7l-2.5,0.8
			c-0.1-0.4-0.3-0.8-0.4-1.1c-0.2-0.3-0.4-0.6-0.6-0.9c-0.2-0.2-0.5-0.4-0.9-0.6s-0.7-0.2-1.2-0.2c-1.2,0-2.1,0.5-2.6,1.4
			c-0.6,0.9-0.8,2.2-0.8,3.8v2.9c0,1.6,0.3,2.8,0.8,3.8c0.6,0.9,1.4,1.4,2.6,1.4c0.5,0,0.9-0.1,1.2-0.2s0.6-0.3,0.9-0.6
			c0.2-0.2,0.4-0.5,0.6-0.9c0.2-0.3,0.3-0.7,0.4-1.1l2.5,0.8c-0.2,0.6-0.4,1.1-0.7,1.7c-0.3,0.5-0.7,1-1.1,1.3
			c-0.4,0.4-1,0.7-1.6,0.9C195.1,68.9,194.4,69,193.6,69z"/>
		<path class="st0" d="M210.6,61.2H205v7.5h-2.7V51.6h2.7v7.3h5.7v-7.3h2.7v17.1h-2.7V61.2z"/>
		<path class="st0" d="M31.3,98.4c-1.1,0-2-0.2-2.8-0.6c-0.8-0.4-1.4-1-2-1.7c-0.5-0.8-0.9-1.7-1.1-2.8C25.1,92.2,25,91,25,89.6
			c0-1.4,0.1-2.6,0.4-3.7c0.2-1.1,0.6-2,1.1-2.8c0.5-0.8,1.2-1.3,2-1.7c0.8-0.4,1.7-0.6,2.8-0.6c1.1,0,2,0.2,2.8,0.6
			c0.8,0.4,1.4,1,2,1.7s0.9,1.7,1.1,2.8c0.2,1.1,0.4,2.3,0.4,3.7c0,1.4-0.1,2.7-0.4,3.8c-0.2,1.1-0.6,2-1.1,2.8
			c-0.5,0.8-1.2,1.3-2,1.7C33.3,98.2,32.4,98.4,31.3,98.4z M31.3,96.2c1.2,0,2.1-0.5,2.7-1.4c0.5-0.9,0.8-2.2,0.8-3.7v-2.9
			c0-1.6-0.3-2.8-0.8-3.7c-0.5-0.9-1.4-1.4-2.7-1.4c-0.6,0-1.2,0.1-1.6,0.4c-0.4,0.2-0.8,0.6-1.1,1c-0.3,0.4-0.5,1-0.6,1.6
			s-0.2,1.3-0.2,2.1V91c0,0.8,0.1,1.5,0.2,2.1c0.1,0.6,0.3,1.2,0.6,1.6c0.3,0.4,0.6,0.8,1.1,1C30.1,96.1,30.7,96.2,31.3,96.2z
			 M31.3,91c-0.6,0-1-0.1-1.2-0.3s-0.3-0.5-0.3-0.8v-0.5c0-0.3,0.1-0.6,0.3-0.8c0.2-0.2,0.6-0.3,1.2-0.3c0.6,0,1,0.1,1.2,0.3
			c0.2,0.2,0.3,0.5,0.3,0.8v0.5c0,0.3-0.1,0.6-0.3,0.8S31.9,91,31.3,91z"/>
		<path class="st0" d="M46,98.4c-1.1,0-2-0.2-2.8-0.6c-0.8-0.4-1.4-1-2-1.7c-0.5-0.8-0.9-1.7-1.1-2.8c-0.2-1.1-0.4-2.3-0.4-3.8
			c0-1.4,0.1-2.6,0.4-3.7c0.2-1.1,0.6-2,1.1-2.8c0.5-0.8,1.2-1.3,2-1.7c0.8-0.4,1.7-0.6,2.8-0.6c1.1,0,2,0.2,2.8,0.6
			c0.8,0.4,1.4,1,2,1.7c0.5,0.8,0.9,1.7,1.1,2.8c0.2,1.1,0.4,2.3,0.4,3.7c0,1.4-0.1,2.7-0.4,3.8c-0.2,1.1-0.6,2-1.1,2.8
			c-0.5,0.8-1.2,1.3-2,1.7C48,98.2,47.1,98.4,46,98.4z M46,96.2c1.2,0,2.1-0.5,2.7-1.4c0.5-0.9,0.8-2.2,0.8-3.7v-2.9
			c0-1.6-0.3-2.8-0.8-3.7C48.1,83.4,47.2,83,46,83c-0.6,0-1.2,0.1-1.6,0.4c-0.4,0.2-0.8,0.6-1.1,1c-0.3,0.4-0.5,1-0.6,1.6
			c-0.1,0.6-0.2,1.3-0.2,2.1V91c0,0.8,0.1,1.5,0.2,2.1c0.1,0.6,0.3,1.2,0.6,1.6c0.3,0.4,0.6,0.8,1.1,1C44.8,96.1,45.4,96.2,46,96.2z
			 M46,91c-0.6,0-1-0.1-1.2-0.3s-0.3-0.5-0.3-0.8v-0.5c0-0.3,0.1-0.6,0.3-0.8c0.2-0.2,0.6-0.3,1.2-0.3c0.6,0,1,0.1,1.2,0.3
			c0.2,0.2,0.3,0.5,0.3,0.8v0.5c0,0.3-0.1,0.6-0.3,0.8S46.6,91,46,91z"/>
		<path class="st0" d="M66.8,87.4c0,1.2-0.2,2.4-0.6,3.5c-0.4,1.1-0.9,2.1-1.5,3c-0.6,0.9-1.3,1.7-2,2.5c-0.7,0.7-1.5,1.3-2.2,1.8
			h-3.7c1-0.7,1.9-1.4,2.6-2c0.8-0.7,1.5-1.3,2-2c0.6-0.7,1.1-1.4,1.5-2.2c0.4-0.8,0.7-1.6,0.9-2.5l-0.2,0c-0.2,0.3-0.4,0.7-0.6,1
			c-0.2,0.3-0.5,0.6-0.9,0.8c-0.3,0.2-0.7,0.4-1.1,0.5c-0.4,0.1-0.9,0.2-1.4,0.2c-0.7,0-1.4-0.1-2-0.4c-0.6-0.2-1.2-0.6-1.6-1.1
			c-0.5-0.5-0.8-1-1.1-1.7c-0.3-0.7-0.4-1.4-0.4-2.2c0-0.8,0.1-1.6,0.4-2.3c0.3-0.7,0.7-1.3,1.2-1.8c0.5-0.5,1.2-0.9,1.9-1.2
			c0.8-0.3,1.6-0.4,2.5-0.4c0.9,0,1.8,0.2,2.6,0.5c0.8,0.3,1.4,0.8,1.9,1.3c0.5,0.6,0.9,1.3,1.2,2.1C66.6,85.4,66.8,86.4,66.8,87.4z
			 M60.7,89.6c1,0,1.8-0.3,2.4-0.8c0.6-0.6,0.9-1.4,0.9-2.4v-0.2c0-1-0.3-1.8-0.9-2.4c-0.6-0.6-1.4-0.8-2.4-0.8
			c-1,0-1.9,0.3-2.4,0.8c-0.6,0.6-0.9,1.4-0.9,2.4v0.2c0,1,0.3,1.8,0.9,2.4S59.6,89.6,60.7,89.6z"/>
		<path class="st0" d="M72.2,98.1l6.3-14.9h-6.7v3.2h-2.4V81h11.8v2.4l-6.2,14.7H72.2z"/>
		<path class="st0" d="M95.3,83.4h-7.8l-0.4,6.1h0.2c0.4-0.7,0.9-1.2,1.4-1.6c0.6-0.4,1.3-0.6,2.3-0.6c0.7,0,1.4,0.1,2,0.4
			c0.6,0.2,1.2,0.6,1.6,1.1c0.5,0.5,0.8,1,1.1,1.7c0.3,0.7,0.4,1.4,0.4,2.2c0,0.8-0.1,1.6-0.4,2.3c-0.3,0.7-0.7,1.3-1.2,1.8
			s-1.2,0.9-1.9,1.2c-0.8,0.3-1.6,0.4-2.6,0.4c-0.8,0-1.5-0.1-2-0.3c-0.6-0.2-1.1-0.4-1.6-0.7c-0.5-0.3-0.9-0.6-1.2-1
			c-0.3-0.4-0.6-0.7-0.9-1.1l2-1.6c0.2,0.3,0.4,0.6,0.7,0.9c0.2,0.3,0.5,0.5,0.8,0.7c0.3,0.2,0.6,0.4,1,0.5c0.4,0.1,0.8,0.2,1.3,0.2
			c1.1,0,1.9-0.3,2.4-0.9c0.6-0.6,0.8-1.4,0.8-2.4v-0.2c0-1-0.3-1.8-0.8-2.3c-0.6-0.6-1.4-0.8-2.4-0.8c-0.8,0-1.4,0.1-1.8,0.4
			c-0.4,0.3-0.8,0.6-1.2,0.9l-2.3-0.3l0.6-9.5h9.9V83.4z"/>
		<path class="st0" d="M106.4,98.1v-3.3h-8.1v-2.4l7.2-11.4h3.6v11.6h2.4v2.2H109v3.3H106.4z M100.5,92.6h5.8v-9.1h-0.1L100.5,92.6z
			"/>
		<path class="st0" d="M118.8,88.1c1.1,0,1.9-0.2,2.4-0.7c0.5-0.5,0.8-1,0.8-1.8v-0.2c0-0.8-0.3-1.4-0.8-1.8
			c-0.5-0.4-1.2-0.6-2.1-0.6c-0.8,0-1.5,0.2-2.1,0.6c-0.6,0.4-1.1,0.9-1.5,1.5l-1.9-1.6c0.3-0.4,0.6-0.7,0.9-1.1
			c0.3-0.3,0.7-0.6,1.2-0.9c0.4-0.3,0.9-0.5,1.5-0.6c0.6-0.2,1.2-0.2,1.9-0.2c0.8,0,1.5,0.1,2.2,0.3c0.7,0.2,1.3,0.5,1.8,0.9
			c0.5,0.4,0.9,0.8,1.2,1.4c0.3,0.5,0.4,1.2,0.4,1.9c0,0.5-0.1,1-0.3,1.5c-0.2,0.4-0.4,0.8-0.7,1.2c-0.3,0.3-0.7,0.6-1.1,0.8
			c-0.4,0.2-0.8,0.4-1.3,0.5v0.1c0.5,0.1,1,0.3,1.4,0.5s0.8,0.5,1.2,0.9c0.3,0.4,0.6,0.8,0.8,1.3c0.2,0.5,0.3,1,0.3,1.7
			c0,0.8-0.1,1.4-0.4,2c-0.3,0.6-0.7,1.1-1.3,1.6c-0.5,0.4-1.2,0.8-2,1c-0.8,0.2-1.6,0.4-2.6,0.4c-0.8,0-1.5-0.1-2.1-0.3
			c-0.6-0.2-1.2-0.4-1.6-0.7c-0.5-0.3-0.9-0.6-1.2-1c-0.4-0.4-0.7-0.7-0.9-1.1l2-1.6c0.4,0.7,0.9,1.2,1.5,1.7
			c0.6,0.4,1.4,0.6,2.4,0.6c1.1,0,1.9-0.2,2.5-0.7c0.6-0.5,0.9-1.2,0.9-2.1v-0.2c0-0.9-0.3-1.6-0.9-2s-1.5-0.7-2.6-0.7h-1.8v-2.3
			H118.8z"/>
		<path class="st0" d="M140.3,98.1h-11.8v-2.6l5.6-4.9c0.9-0.8,1.6-1.5,2-2.2c0.5-0.7,0.7-1.4,0.7-2.2v-0.3c0-0.9-0.2-1.6-0.7-2.1
			c-0.5-0.5-1.2-0.7-2.1-0.7c-0.9,0-1.7,0.3-2.2,0.8c-0.5,0.5-0.9,1.2-1.1,1.9l-2.4-0.9c0.2-0.5,0.4-1.1,0.7-1.6
			c0.3-0.5,0.7-0.9,1.2-1.3c0.5-0.4,1.1-0.7,1.7-0.9c0.7-0.2,1.4-0.3,2.3-0.3c0.9,0,1.7,0.1,2.4,0.4c0.7,0.3,1.3,0.6,1.8,1
			c0.5,0.4,0.8,1,1.1,1.6c0.2,0.6,0.4,1.3,0.4,2c0,0.7-0.1,1.3-0.3,1.9c-0.2,0.6-0.5,1.1-0.9,1.7c-0.4,0.5-0.8,1-1.3,1.5
			c-0.5,0.5-1.1,1-1.7,1.5l-4.1,3.5h8.8V98.1z"/>
		<path class="st0" d="M150.5,98.1v-3.3h-8.1v-2.4l7.2-11.4h3.6v11.6h2.4v2.2h-2.4v3.3H150.5z M144.7,92.6h5.8v-9.1h-0.1L144.7,92.6
			z"/>
		<path class="st0" d="M168.8,83.4h-7.8l-0.4,6.1h0.2c0.4-0.7,0.9-1.2,1.4-1.6c0.6-0.4,1.3-0.6,2.3-0.6c0.7,0,1.4,0.1,2,0.4
			c0.6,0.2,1.2,0.6,1.6,1.1c0.5,0.5,0.8,1,1.1,1.7c0.3,0.7,0.4,1.4,0.4,2.2c0,0.8-0.1,1.6-0.4,2.3c-0.3,0.7-0.7,1.3-1.2,1.8
			s-1.2,0.9-1.9,1.2c-0.8,0.3-1.6,0.4-2.6,0.4c-0.8,0-1.5-0.1-2-0.3c-0.6-0.2-1.1-0.4-1.6-0.7c-0.5-0.3-0.9-0.6-1.2-1
			c-0.3-0.4-0.6-0.7-0.9-1.1l2-1.6c0.2,0.3,0.4,0.6,0.7,0.9c0.2,0.3,0.5,0.5,0.8,0.7c0.3,0.2,0.6,0.4,1,0.5c0.4,0.1,0.8,0.2,1.3,0.2
			c1.1,0,1.9-0.3,2.4-0.9c0.6-0.6,0.8-1.4,0.8-2.4v-0.2c0-1-0.3-1.8-0.8-2.3c-0.6-0.6-1.4-0.8-2.4-0.8c-0.8,0-1.4,0.1-1.8,0.4
			c-0.4,0.3-0.8,0.6-1.2,0.9l-2.3-0.3L159,81h9.9V83.4z"/>
	</g>
	<g>
		<g>
			<ellipse class="st0" cx="331.5" cy="707.5" rx="4.8" ry="7"/>
		</g>
		<g>
			<ellipse class="st0" cx="331.5" cy="753" rx="4.8" ry="7"/>
		</g>
		<g>
			<path class="st0" d="M291,744.2c-0.1,0-0.2-0.1-0.2-0.2c-0.2-7.6-9.3-6.5-9.3-13.6c0-7.2,9.1-6,9.3-13.8c0-0.1,0.1-0.2,0.2-0.2
				l0,0c0.1,0,0.2,0.1,0.2,0.2c0.2,7.8,9.3,6.7,9.3,13.8c0,7.2-9.1,6-9.3,13.6C291.2,744.1,291.1,744.2,291,744.2L291,744.2z"/>
		</g>
		<g>
			<path class="st0" d="M331.5,744.2c-0.1,0-0.2-0.1-0.2-0.2c-0.2-7.6-9.3-6.5-9.3-13.6c0-7.2,9.1-6,9.3-13.8c0-0.1,0.1-0.2,0.2-0.2
				l0,0c0.1,0,0.2,0.1,0.2,0.2c0.2,7.8,9.3,6.7,9.3,13.8c0,7.2-9.1,6-9.3,13.6C331.7,744.1,331.6,744.2,331.5,744.2L331.5,744.2z"/>
		</g>
		<g>
			<path class="st0" d="M311.3,744.2c-0.1,0-0.2-0.1-0.2-0.2c-0.2-7.6-9.3-6.5-9.3-13.6c0-7.2,9.1-6,9.3-13.8c0-0.1,0.1-0.2,0.2-0.2
				l0,0c0.1,0,0.2,0.1,0.2,0.2c0.2,7.8,9.3,6.7,9.3,13.8c0,7.2-9.1,6-9.3,13.6C311.5,744.1,311.4,744.2,311.3,744.2L311.3,744.2z"/>
		</g>
		<g>
			<ellipse class="st0" cx="311.3" cy="707.5" rx="4.8" ry="7"/>
		</g>
		<g>
			<ellipse class="st0" cx="311.3" cy="753" rx="4.8" ry="7"/>
		</g>
		<g>
			<ellipse class="st0" cx="291" cy="707.5" rx="4.8" ry="7"/>
		</g>
		<g>
			<ellipse class="st0" cx="291" cy="753" rx="4.8" ry="7"/>
		</g>
	</g>
	<line class="st1" x1="23.5" y1="275" x2="599" y2="275"/>
</g>
</svg>
