<?xml version="1.0" encoding="utf-8"?>
<!-- Generator: Adobe Illustrator 27.2.0, SVG Export Plug-In . SVG Version: 6.00 Build 0)  -->
<svg version="1.1" id="Layer_1" xmlns="http://www.w3.org/2000/svg" xmlns:xlink="http://www.w3.org/1999/xlink" x="0px" y="0px"
	 viewBox="0 0 183 184" style="enable-background:new 0 0 183 184;" xml:space="preserve">
<style type="text/css">
	.st0{fill:#3D2333;}
</style>
<g>
	<g>
		<path class="st0" d="M91.33,0.5c-7.3,0-13.23,9.64-13.23,21.5s5.94,21.5,13.23,21.5c7.3,0,13.23-9.64,13.23-21.5
			S98.63,0.5,91.33,0.5L91.33,0.5z"/>
		<path class="st0" d="M91.33,141c-7.3,0-13.23,9.64-13.23,21.5S84.04,184,91.33,184c7.3,0,13.23-9.64,13.23-21.5
			C104.57,150.65,98.63,141,91.33,141L91.33,141z"/>
		<path class="st0" d="M91.33,49.74c-0.29,0-0.52,0.29-0.52,0.63c-0.44,23.92-25.8,20.39-25.8,42.29c0,21.9,25.35,18.37,25.8,41.66
			c0.01,0.35,0.23,0.63,0.52,0.63s0.52-0.28,0.52-0.63c0.45-23.29,25.8-19.76,25.8-41.66c0-21.9-25.36-18.37-25.8-42.29
			C91.85,50.02,91.62,49.74,91.33,49.74L91.33,49.74z"/>
		<path class="st0" d="M156.69,0.5c-7.3,0-13.23,9.64-13.23,21.5s5.94,21.5,13.23,21.5c7.3,0,13.23-9.64,13.23-21.5
			C169.93,10.14,163.99,0.5,156.69,0.5L156.69,0.5z"/>
		<path class="st0" d="M156.69,141c-7.3,0-13.23,9.64-13.23,21.5s5.94,21.5,13.23,21.5c7.3,0,13.23-9.64,13.23-21.5
			C169.93,150.65,163.99,141,156.69,141L156.69,141z"/>
		<path class="st0" d="M26.33,49.74c-0.29,0-0.52,0.29-0.52,0.63C25.36,74.3,0,70.76,0,92.67c0,21.9,25.35,18.37,25.8,41.66
			c0.01,0.35,0.23,0.63,0.52,0.63c0.29,0,0.52-0.28,0.52-0.63c0.45-23.29,25.8-19.76,25.8-41.66c0-21.9-25.36-18.37-25.8-42.29
			C26.84,50.02,26.61,49.74,26.33,49.74L26.33,49.74z"/>
		<path class="st0" d="M156.67,49.74c-0.29,0-0.52,0.29-0.52,0.63c-0.44,23.92-25.8,20.39-25.8,42.29c0,21.9,25.35,18.37,25.8,41.66
			c0.01,0.35,0.23,0.63,0.52,0.63s0.52-0.28,0.52-0.63c0.45-23.29,25.8-19.76,25.8-41.66c0-21.9-25.36-18.37-25.8-42.29
			C157.19,50.02,156.96,49.74,156.67,49.74L156.67,49.74z"/>
		<path class="st0" d="M26.35,0.5c-7.3,0-13.23,9.64-13.23,21.5s5.94,21.5,13.23,21.5c7.3,0,13.23-9.64,13.23-21.5
			S33.64,0.5,26.35,0.5L26.35,0.5z"/>
		<path class="st0" d="M26.35,141c-7.3,0-13.23,9.64-13.23,21.5S19.05,184,26.35,184c7.3,0,13.23-9.64,13.23-21.5
			C39.58,150.65,33.64,141,26.35,141L26.35,141z"/>
	</g>
</g>
</svg>
