<?xml version="1.0" encoding="utf-8"?>
<!-- Generator: Adobe Illustrator 27.2.0, SVG Export Plug-In . SVG Version: 6.00 Build 0)  -->
<svg version="1.1" id="Layer_1" xmlns="http://www.w3.org/2000/svg" xmlns:xlink="http://www.w3.org/1999/xlink" x="0px" y="0px"
	 viewBox="0 0 183 184" style="enable-background:new 0 0 183 184;" xml:space="preserve">
<style type="text/css">
	.st0{fill:#33252D;}
</style>
<g>
	<ellipse class="st0" cx="153.82" cy="21.94" rx="14.68" ry="21.44"/>
	<ellipse class="st0" cx="153.82" cy="162.06" rx="14.68" ry="21.44"/>
	<path class="st0" d="M29.2,134.88c-0.32,0-0.57-0.29-0.58-0.64C28.11,110.86,0,114.4,0,92.41c0-21.99,28.13-18.44,28.62-42.46
		c0.01-0.35,0.26-0.64,0.58-0.64h0c0.32,0,0.57,0.29,0.58,0.64c0.49,24.02,28.62,20.47,28.62,42.46c0,21.99-28.11,18.45-28.62,41.83
		C29.77,134.59,29.51,134.88,29.2,134.88L29.2,134.88z"/>
	<path class="st0" d="M153.8,134.88c-0.32,0-0.57-0.29-0.58-0.64c-0.5-23.38-28.62-19.84-28.62-41.83
		c0-21.99,28.13-18.44,28.62-42.46c0.01-0.35,0.26-0.64,0.58-0.64l0,0c0.32,0,0.57,0.29,0.58,0.64C154.87,73.97,183,70.42,183,92.41
		c0,21.99-28.11,18.45-28.62,41.83C154.38,134.59,154.12,134.88,153.8,134.88L153.8,134.88z"/>
	<path class="st0" d="M91.5,134.88c-0.32,0-0.57-0.29-0.58-0.64c-0.5-23.38-28.62-19.84-28.62-41.83
		c0-21.99,28.13-18.44,28.62-42.46c0.01-0.35,0.26-0.64,0.58-0.64l0,0c0.32,0,0.57,0.29,0.58,0.64
		c0.49,24.02,28.62,20.47,28.62,42.46c0,21.99-28.11,18.45-28.62,41.83C92.07,134.59,91.82,134.88,91.5,134.88L91.5,134.88z"/>
	<ellipse class="st0" cx="91.52" cy="21.94" rx="14.68" ry="21.44"/>
	<ellipse class="st0" cx="91.52" cy="162.06" rx="14.68" ry="21.44"/>
	<ellipse class="st0" cx="29.22" cy="21.94" rx="14.68" ry="21.44"/>
	<ellipse class="st0" cx="29.22" cy="162.06" rx="14.68" ry="21.44"/>
</g>
</svg>
